<svg id="svg" version="1.1" xmlns="http://www.w3.org/2000/svg" xmlns:xlink="http://www.w3.org/1999/xlink" width="400" height="109.0909090909091" viewBox="0, 0, 400,109.0909090909091"><g id="svgg"><path id="path0" d="M384.833 52.934 C 382.355 54.189,379.468 54.833,376.317 54.833 C 366.044 54.833,357.364 62.829,356.730 72.875 L 356.618 74.667 361.725 74.667 C 364.535 74.667,366.834 74.610,366.834 74.542 C 366.858 69.802,370.700 65.512,375.458 64.912 L 376.333 64.802 376.333 69.734 L 376.333 74.667 379.244 74.667 C 383.316 74.667,384.672 74.101,385.740 71.956 L 386.167 71.101 386.167 61.717 C 386.167 56.556,386.110 52.345,386.042 52.359 C 385.973 52.374,385.429 52.632,384.833 52.934 " stroke="none" fill="#fac421" fill-rule="evenodd"></path><path id="path1" d="M368.458 35.290 L 367.500 35.350 367.500 40.164 L 367.500 44.979 366.958 45.046 C 366.660 45.083,368.262 45.125,370.517 45.140 C 376.472 45.179,376.333 45.039,376.333 50.958 L 376.333 54.833 377.145 54.833 C 379.200 54.833,382.709 53.940,384.833 52.876 L 386.083 52.250 386.083 45.250 L 386.083 38.250 385.648 37.583 C 384.115 35.233,383.814 35.159,375.869 35.198 C 372.320 35.216,368.985 35.257,368.458 35.290 M113.238 39.496 C 105.965 40.532,101.486 46.398,101.466 54.917 C 101.449 62.054,104.179 66.895,109.608 69.357 C 113.749 71.234,119.987 70.953,123.245 68.743 C 123.577 68.518,123.928 68.333,124.026 68.333 C 124.397 68.333,127.274 65.209,127.940 64.083 C 130.025 60.556,130.782 56.139,130.089 51.541 C 128.825 43.158,121.964 38.253,113.238 39.496 M233.917 39.488 C 227.789 40.306,224.267 43.868,224.255 49.259 L 224.250 51.601 224.903 52.925 C 226.503 56.169,228.992 57.524,236.228 59.090 C 239.283 59.752,240.333 60.354,240.333 61.445 C 240.333 64.620,232.986 63.747,231.590 60.407 L 231.332 59.791 230.458 59.899 C 229.977 59.958,229.021 60.113,228.333 60.242 C 227.646 60.372,226.483 60.591,225.750 60.730 C 225.017 60.869,224.042 61.034,223.583 61.096 C 222.441 61.251,222.459 61.216,222.919 62.439 C 225.021 68.023,229.239 70.579,236.333 70.568 C 241.207 70.560,244.496 69.443,247.086 66.917 C 251.287 62.819,250.711 55.754,245.941 52.863 C 244.414 51.938,243.578 51.683,236.500 49.983 C 234.133 49.415,233.500 48.967,233.500 47.863 C 233.500 45.133,239.820 45.817,241.003 48.675 C 241.261 49.297,240.909 49.349,245.129 48.065 C 249.331 46.787,249.151 46.891,248.736 45.966 C 246.539 41.069,240.815 38.567,233.917 39.488 M13.667 54.991 L 13.667 70.167 18.417 70.167 L 23.167 70.167 23.167 64.417 L 23.167 58.667 24.555 58.667 L 25.943 58.667 26.567 60.292 C 26.911 61.185,27.442 62.554,27.748 63.333 C 28.265 64.649,29.991 69.214,30.221 69.875 C 30.315 70.144,30.724 70.167,35.596 70.167 C 39.747 70.167,40.852 70.122,40.787 69.958 C 40.743 69.844,40.477 69.225,40.197 68.583 C 39.519 67.031,37.629 62.513,36.745 60.333 C 36.355 59.371,35.880 58.227,35.690 57.792 L 35.345 57.001 36.044 56.644 C 42.577 53.311,42.247 43.717,35.500 40.842 C 33.331 39.918,33.627 39.941,23.292 39.876 L 13.667 39.816 13.667 54.991 M51.914 40.042 C 51.872 40.156,51.471 41.450,51.023 42.917 C 50.575 44.383,49.556 47.683,48.759 50.250 C 47.961 52.817,47.245 55.142,47.167 55.417 C 47.089 55.692,46.451 57.754,45.750 60.000 C 45.049 62.246,44.410 64.308,44.331 64.583 C 44.252 64.858,43.847 66.171,43.430 67.500 C 43.014 68.829,42.672 69.973,42.670 70.042 C 42.668 70.110,44.383 70.167,46.480 70.167 L 50.294 70.167 50.719 68.792 C 50.953 68.035,51.350 66.723,51.602 65.875 L 52.059 64.333 56.118 64.333 C 59.221 64.333,60.192 64.382,60.240 64.542 C 60.274 64.656,60.623 65.892,61.014 67.289 C 61.406 68.685,61.774 69.905,61.833 69.999 C 61.903 70.113,63.551 70.157,66.691 70.128 L 71.443 70.083 70.797 68.000 C 70.441 66.854,69.900 65.129,69.595 64.167 C 69.289 63.204,68.579 60.917,68.016 59.083 C 67.452 57.250,66.886 55.450,66.757 55.083 C 66.532 54.445,65.566 51.364,64.249 47.083 C 63.910 45.983,63.532 44.783,63.409 44.417 C 63.285 44.050,62.908 42.869,62.571 41.792 L 61.958 39.833 56.974 39.833 C 53.138 39.833,51.972 39.881,51.914 40.042 M74.000 55.000 L 74.000 70.167 78.500 70.167 L 83.000 70.167 83.000 66.608 L 83.000 63.050 83.795 61.983 C 84.233 61.397,84.883 60.485,85.240 59.958 C 86.067 58.736,85.957 58.673,86.994 60.958 C 88.716 64.751,90.021 67.597,90.624 68.875 L 91.234 70.167 96.381 70.167 C 99.490 70.167,101.506 70.105,101.472 70.011 C 101.442 69.926,100.531 68.070,99.449 65.886 C 98.366 63.703,96.257 59.442,94.761 56.417 L 92.041 50.917 92.411 50.417 C 92.614 50.142,93.596 48.717,94.593 47.250 C 95.590 45.783,97.142 43.533,98.042 42.250 L 99.680 39.917 95.551 39.872 C 93.281 39.847,91.336 39.860,91.231 39.901 C 91.126 39.941,89.230 42.687,87.020 46.002 L 83.000 52.029 83.000 45.931 L 83.000 39.833 78.500 39.833 L 74.000 39.833 74.000 55.000 M134.167 54.991 L 134.167 70.167 138.917 70.167 L 143.667 70.167 143.667 64.417 L 143.667 58.667 145.042 58.668 L 146.417 58.670 147.179 60.710 C 147.599 61.832,148.574 64.417,149.346 66.454 L 150.750 70.159 156.021 70.163 L 161.291 70.167 160.047 67.208 C 159.363 65.581,158.330 63.087,157.752 61.667 C 157.173 60.246,156.502 58.636,156.260 58.089 L 155.820 57.095 156.202 56.801 C 156.412 56.640,156.636 56.506,156.700 56.504 C 156.764 56.502,157.177 56.258,157.617 55.962 C 162.709 52.534,162.201 44.112,156.728 41.217 C 154.238 39.899,154.546 39.931,143.792 39.870 L 134.167 39.816 134.167 54.991 M165.500 55.000 L 165.500 70.167 169.333 70.167 L 173.167 70.167 173.167 62.324 C 173.167 57.495,173.097 54.031,172.985 53.311 C 172.737 51.710,172.815 51.746,173.816 53.697 C 174.296 54.630,175.114 56.098,175.636 56.958 C 176.756 58.806,176.624 58.591,178.822 62.123 C 182.584 68.169,183.523 69.699,183.611 69.928 C 183.687 70.126,184.372 70.167,187.601 70.167 L 191.500 70.167 191.500 55.000 L 191.500 39.833 187.667 39.833 L 183.833 39.833 183.837 45.792 C 183.839 50.080,183.909 52.264,184.085 53.583 C 184.420 56.088,184.420 56.090,183.639 54.583 C 183.259 53.850,182.753 52.950,182.516 52.583 C 182.278 52.217,182.046 51.838,182.000 51.742 C 181.954 51.645,181.354 50.687,180.667 49.613 C 179.979 48.538,179.342 47.533,179.250 47.379 C 179.158 47.226,178.854 46.759,178.573 46.342 C 178.292 45.925,178.012 45.471,177.950 45.333 C 177.888 45.196,177.390 44.408,176.843 43.583 C 176.296 42.758,175.542 41.577,175.167 40.958 L 174.485 39.833 169.993 39.833 L 165.500 39.833 165.500 55.000 M203.080 41.289 C 202.649 42.712,202.240 44.040,199.139 54.083 C 198.318 56.742,197.546 59.254,197.424 59.667 C 197.301 60.079,196.662 62.142,196.005 64.250 C 195.347 66.358,194.710 68.421,194.590 68.833 C 194.469 69.246,194.317 69.715,194.251 69.875 C 194.139 70.148,194.382 70.167,198.024 70.166 L 201.917 70.166 202.215 69.125 C 202.379 68.552,202.778 67.238,203.102 66.205 L 203.691 64.327 207.706 64.372 L 211.722 64.417 212.013 65.333 C 212.172 65.837,212.546 67.131,212.843 68.208 L 213.384 70.167 218.210 70.167 C 222.002 70.167,223.019 70.122,222.957 69.958 C 222.913 69.844,222.675 69.075,222.427 68.250 C 222.180 67.425,221.725 65.962,221.417 65.000 C 221.109 64.037,220.579 62.350,220.238 61.250 C 219.019 57.311,217.170 51.400,216.249 48.500 C 215.943 47.538,215.414 45.850,215.073 44.750 C 214.732 43.650,214.250 42.112,214.003 41.333 L 213.554 39.917 208.538 39.873 L 203.522 39.828 203.080 41.289 M264.667 54.988 L 264.667 70.167 269.500 70.167 L 274.333 70.167 274.333 64.667 L 274.333 59.167 277.426 59.167 C 282.916 59.167,285.302 58.494,287.809 56.240 C 292.285 52.216,291.043 43.690,285.605 41.115 C 283.127 39.942,283.162 39.945,273.458 39.874 L 264.667 39.810 264.667 54.988 M298.746 40.042 C 298.704 40.156,298.338 41.337,297.932 42.667 C 297.527 43.996,296.508 47.296,295.669 50.000 C 294.829 52.704,294.079 55.142,294.000 55.417 C 293.922 55.692,293.285 57.754,292.583 60.000 C 291.882 62.246,291.245 64.308,291.168 64.583 C 291.090 64.858,290.685 66.171,290.266 67.500 C 289.848 68.829,289.504 69.973,289.503 70.042 C 289.501 70.110,291.220 70.167,293.323 70.167 L 297.146 70.167 297.562 68.792 C 297.791 68.035,298.183 66.723,298.435 65.875 L 298.893 64.333 302.952 64.333 C 306.055 64.333,307.025 64.382,307.071 64.542 C 307.104 64.656,307.294 65.350,307.494 66.083 C 307.694 66.817,307.922 67.604,308.001 67.833 C 308.080 68.063,308.264 68.681,308.410 69.208 L 308.676 70.167 313.496 70.167 L 318.316 70.167 318.169 69.708 C 318.088 69.456,317.638 68.012,317.169 66.500 C 316.700 64.987,316.180 63.337,316.012 62.833 C 315.845 62.329,315.442 61.054,315.117 60.000 C 314.544 58.142,313.381 54.423,312.248 50.833 C 311.945 49.871,311.420 48.183,311.081 47.083 C 310.743 45.983,310.365 44.783,310.241 44.417 C 310.118 44.050,309.747 42.869,309.419 41.792 L 308.822 39.833 303.822 39.833 C 299.975 39.833,298.805 39.881,298.746 40.042 M29.402 46.753 C 30.443 47.280,30.750 47.831,30.749 49.171 C 30.748 51.351,29.575 52.000,25.637 52.000 L 23.167 52.000 23.167 49.153 L 23.167 46.305 25.958 46.364 C 28.333 46.415,28.847 46.473,29.402 46.753 M117.046 46.510 C 119.128 47.088,120.167 49.761,120.167 54.539 C 120.167 60.763,119.022 63.310,116.153 63.472 C 113.279 63.635,111.833 61.469,111.573 56.613 C 111.188 49.415,113.322 45.476,117.046 46.510 M149.932 46.807 C 150.867 47.344,151.222 48.003,151.222 49.204 C 151.222 51.294,149.959 52.000,146.220 52.000 L 143.667 52.000 143.667 49.153 L 143.667 46.305 146.458 46.361 C 149.026 46.412,149.305 46.448,149.932 46.807 M279.663 47.208 C 280.753 47.765,281.083 48.314,281.083 49.566 C 281.083 51.786,279.926 52.500,276.327 52.500 L 274.167 52.500 274.167 49.667 L 274.167 46.833 276.548 46.833 C 278.689 46.833,279.003 46.871,279.663 47.208 M56.825 51.601 C 57.182 52.875,57.696 54.723,57.965 55.708 L 58.455 57.500 56.131 57.500 L 53.807 57.500 53.915 56.958 C 53.975 56.660,54.121 56.079,54.240 55.667 C 54.434 54.996,54.780 53.775,55.421 51.500 C 55.537 51.087,55.725 50.392,55.839 49.954 C 56.101 48.944,56.057 48.871,56.825 51.601 M303.658 51.601 C 304.016 52.875,304.529 54.723,304.799 55.708 L 305.289 57.500 302.964 57.500 L 300.640 57.500 300.753 56.958 C 300.816 56.660,301.121 55.517,301.432 54.417 C 302.226 51.606,302.432 50.863,302.671 49.954 C 302.935 48.944,302.891 48.870,303.658 51.601 M208.079 50.458 C 208.412 51.727,209.368 55.149,209.748 56.431 C 209.887 56.898,210.000 57.329,210.000 57.390 C 210.000 57.450,208.945 57.500,207.655 57.500 C 205.500 57.500,205.318 57.476,205.399 57.208 C 205.624 56.458,206.911 51.776,207.208 50.625 C 207.615 49.047,207.704 49.030,208.079 50.458 " stroke="none" fill="#135cc4" fill-rule="evenodd"></path><path id="path2" d="M350.041 35.463 C 348.879 35.790,347.735 36.804,347.225 37.958 L 346.833 38.843 346.843 54.880 C 346.853 72.741,346.779 71.580,348.000 72.964 C 349.145 74.260,350.382 74.636,353.454 74.619 C 354.884 74.612,355.231 74.585,354.375 74.547 L 353.000 74.487 353.000 54.922 L 353.000 35.357 353.375 35.280 C 353.581 35.237,353.113 35.206,352.333 35.209 C 351.554 35.213,350.522 35.327,350.041 35.463 " stroke="none" fill="#1b74d2" fill-rule="evenodd"></path><path id="path3" d="M353.375 35.284 L 353.000 35.357 353.000 54.906 L 353.000 74.455 354.708 74.543 C 355.678 74.592,356.489 74.562,356.583 74.473 C 356.691 74.372,356.769 69.410,356.803 60.450 C 356.860 45.215,356.792 46.158,357.884 45.493 C 358.370 45.196,358.744 45.168,362.185 45.167 C 364.258 45.167,366.301 45.119,366.727 45.061 L 367.500 44.955 367.500 40.152 L 367.500 35.350 368.458 35.290 C 368.985 35.257,365.892 35.226,361.583 35.221 C 357.275 35.216,353.581 35.245,353.375 35.284 " stroke="none" fill="#1c6ccc" fill-rule="evenodd"></path><path id="path4" d="" stroke="none" fill="#587c94" fill-rule="evenodd"></path></g></svg>