<svg id="svg" version="1.1" xmlns="http://www.w3.org/2000/svg" xmlns:xlink="http://www.w3.org/1999/xlink" width="400" height="42.512077294685994" viewBox="0, 0, 400,42.512077294685994"><g id="svgg"><path id="path0" d="M105.500 4.902 C 104.055 5.279,103.915 5.325,102.750 5.800 C 101.164 6.446,97.667 9.224,97.667 9.837 C 97.667 9.898,97.478 10.166,97.248 10.432 C 96.755 11.004,95.615 13.266,95.282 14.333 C 94.761 16.005,94.656 16.499,94.416 18.410 C 94.062 21.238,94.268 25.288,94.862 27.167 C 95.239 28.360,95.370 28.758,95.491 29.083 C 95.682 29.595,96.861 31.906,96.980 32.000 C 97.038 32.046,97.308 32.383,97.580 32.750 C 98.156 33.527,99.479 34.773,100.228 35.246 C 100.515 35.427,100.852 35.674,100.978 35.795 C 101.968 36.752,105.322 37.849,108.208 38.161 C 111.573 38.524,116.407 37.512,117.906 36.131 C 118.084 35.967,118.333 35.833,118.460 35.833 C 118.587 35.833,118.796 35.728,118.926 35.598 C 119.055 35.469,119.218 35.338,119.289 35.306 C 119.424 35.246,121.255 33.295,122.053 32.361 C 125.670 28.126,126.529 18.450,123.782 12.886 C 123.240 11.789,122.783 10.970,122.583 10.739 C 122.492 10.633,122.198 10.268,121.931 9.929 C 119.818 7.241,117.139 5.648,113.123 4.689 C 111.695 4.349,107.134 4.476,105.500 4.902 M235.500 4.745 C 231.141 5.702,228.342 7.638,226.974 10.641 C 225.922 12.949,225.633 17.119,226.417 18.669 C 227.969 21.737,230.000 23.404,233.417 24.415 C 233.967 24.577,234.724 24.808,235.101 24.928 C 235.790 25.148,238.752 25.870,239.833 26.083 C 242.770 26.659,244.089 28.098,242.830 29.350 C 241.964 30.211,239.563 30.545,238.126 30.004 C 235.780 29.121,234.718 28.332,234.161 27.056 C 233.826 26.291,233.716 26.273,231.667 26.665 C 231.254 26.744,230.429 26.893,229.833 26.997 C 229.237 27.100,228.487 27.251,228.167 27.331 C 227.846 27.411,227.133 27.526,226.583 27.587 C 225.052 27.755,224.333 27.976,224.333 28.279 C 224.333 29.066,225.660 32.041,226.438 33.000 C 228.580 35.639,230.673 36.902,234.360 37.781 C 235.945 38.158,241.840 38.206,243.500 37.854 C 245.233 37.487,248.000 36.529,248.000 36.297 C 248.000 36.225,248.112 36.167,248.250 36.167 C 248.387 36.167,248.500 36.101,248.500 36.020 C 248.500 35.940,248.711 35.786,248.968 35.680 C 250.160 35.186,252.497 32.404,253.040 30.833 C 255.238 24.471,252.429 19.211,245.917 17.493 C 244.203 17.041,242.078 16.509,241.000 16.262 C 236.826 15.305,235.743 14.593,236.324 13.189 C 236.875 11.859,241.161 11.585,242.167 12.815 C 242.213 12.871,242.466 13.028,242.729 13.164 C 243.211 13.413,244.000 14.411,244.000 14.771 C 244.000 15.268,245.339 15.112,247.667 14.344 C 248.446 14.087,249.533 13.747,250.083 13.589 C 252.532 12.886,253.058 12.564,252.698 11.989 C 252.589 11.814,252.500 11.598,252.500 11.508 C 252.500 10.747,249.974 7.819,248.500 6.872 C 246.779 5.765,245.612 5.304,242.968 4.683 C 241.943 4.443,236.677 4.486,235.500 4.745 M0.000 21.306 L 0.000 37.667 5.167 37.667 L 10.333 37.667 10.333 31.500 L 10.333 25.333 11.714 25.333 L 13.096 25.333 14.562 29.125 C 15.368 31.210,16.097 33.085,16.181 33.292 C 16.394 33.815,16.538 34.188,17.244 36.042 L 17.864 37.667 23.599 37.667 C 27.352 37.667,29.333 37.608,29.333 37.498 C 29.333 37.343,29.169 36.947,28.334 35.083 C 28.170 34.717,27.869 34.004,27.666 33.500 C 27.463 32.996,27.130 32.208,26.927 31.750 C 26.724 31.292,26.349 30.392,26.093 29.750 C 25.837 29.108,25.495 28.283,25.333 27.917 C 25.172 27.550,24.836 26.725,24.588 26.083 C 24.340 25.442,23.992 24.625,23.814 24.268 C 23.637 23.911,23.512 23.605,23.537 23.587 C 23.563 23.569,24.025 23.306,24.565 23.002 C 31.105 19.319,30.714 9.188,23.917 6.182 C 23.642 6.061,23.291 5.898,23.138 5.821 C 21.995 5.244,20.677 5.165,10.319 5.055 L 0.000 4.945 0.000 21.306 M41.478 5.116 C 41.108 5.174,40.995 5.333,40.752 6.134 C 40.594 6.656,40.257 7.721,40.005 8.500 C 39.207 10.958,38.667 12.763,38.667 12.970 C 38.667 13.081,38.600 13.301,38.519 13.461 C 38.318 13.853,37.394 16.777,37.245 17.495 C 37.179 17.812,37.065 18.187,36.993 18.328 C 36.921 18.468,36.626 19.371,36.338 20.333 C 35.787 22.173,34.730 25.625,34.501 26.333 C 34.427 26.563,34.086 27.650,33.742 28.750 C 33.399 29.850,32.941 31.295,32.726 31.962 C 32.510 32.628,32.333 33.286,32.333 33.422 C 32.333 33.559,32.265 33.801,32.182 33.961 C 32.098 34.120,31.823 34.925,31.571 35.750 C 31.319 36.575,31.079 37.344,31.038 37.458 C 30.980 37.621,31.886 37.667,35.212 37.667 L 39.460 37.667 39.640 37.208 C 39.821 36.748,40.083 35.906,40.935 33.042 L 41.394 31.500 45.176 31.500 C 49.962 31.500,49.878 31.484,50.149 32.473 C 50.266 32.900,50.423 33.438,50.497 33.667 C 50.571 33.896,50.796 34.646,50.997 35.333 C 51.198 36.021,51.446 36.827,51.548 37.125 L 51.734 37.667 56.950 37.667 C 60.845 37.667,62.167 37.617,62.167 37.470 C 62.167 37.362,62.093 37.043,62.004 36.762 C 61.914 36.480,61.697 35.800,61.522 35.250 C 61.347 34.700,61.000 33.575,60.752 32.750 C 60.503 31.925,60.157 30.884,59.983 30.436 C 59.809 29.988,59.667 29.525,59.667 29.406 C 59.667 29.185,58.908 26.688,58.657 26.083 C 58.581 25.900,58.321 25.075,58.080 24.250 C 57.838 23.425,57.354 21.887,57.005 20.833 C 56.656 19.779,56.168 18.242,55.921 17.417 C 55.675 16.592,55.336 15.504,55.169 15.000 C 55.003 14.496,54.735 13.633,54.575 13.083 C 54.259 11.994,53.431 9.374,52.574 6.750 L 52.030 5.083 46.973 5.065 C 44.192 5.056,41.719 5.078,41.478 5.116 M64.833 21.333 L 64.833 37.667 69.667 37.667 L 74.500 37.667 74.500 33.979 L 74.500 30.292 75.282 29.188 C 75.711 28.580,76.108 28.046,76.162 28.000 C 76.217 27.954,76.544 27.485,76.890 26.958 C 77.681 25.751,77.746 25.759,78.359 27.125 C 78.637 27.744,79.120 28.800,79.432 29.473 C 79.745 30.146,80.000 30.724,80.000 30.758 C 80.000 30.793,80.326 31.517,80.724 32.369 C 81.123 33.220,81.654 34.367,81.904 34.917 C 82.155 35.467,82.557 36.310,82.799 36.792 L 83.237 37.667 88.775 37.667 C 91.821 37.667,94.351 37.607,94.396 37.533 C 94.441 37.460,92.938 34.291,91.055 30.492 C 84.920 18.115,84.500 17.252,84.500 17.050 C 84.500 16.888,85.637 15.135,86.208 14.417 C 86.281 14.325,86.733 13.650,87.212 12.917 C 87.691 12.183,88.158 11.496,88.250 11.389 C 88.342 11.282,88.754 10.699,89.167 10.094 C 89.579 9.489,90.503 8.163,91.219 7.147 C 91.935 6.131,92.480 5.258,92.430 5.208 C 92.185 4.963,83.401 4.956,83.159 5.200 C 82.886 5.476,82.615 5.846,81.721 7.167 C 81.379 7.671,80.439 9.058,79.632 10.250 C 78.825 11.442,78.071 12.551,77.957 12.715 C 77.843 12.879,77.174 13.891,76.469 14.965 C 75.765 16.038,75.123 16.993,75.042 17.085 C 74.961 17.178,74.808 17.403,74.702 17.585 C 74.555 17.840,74.509 16.416,74.505 11.458 L 74.500 5.000 69.667 5.000 L 64.833 5.000 64.833 21.333 M129.333 21.307 L 129.333 37.667 134.500 37.667 L 139.667 37.667 139.667 31.500 L 139.667 25.333 141.061 25.333 L 142.455 25.333 142.743 26.125 C 143.070 27.024,144.431 30.632,145.747 34.083 C 146.236 35.367,146.724 36.698,146.831 37.042 L 147.026 37.667 152.846 37.667 C 156.047 37.667,158.667 37.631,158.667 37.588 C 158.667 37.545,158.479 37.100,158.250 36.599 C 158.021 36.098,157.833 35.648,157.833 35.598 C 157.833 35.549,157.620 35.038,157.359 34.463 C 157.098 33.887,156.675 32.854,156.419 32.167 C 156.162 31.479,155.900 30.842,155.837 30.750 C 155.773 30.658,155.547 30.133,155.335 29.583 C 155.122 29.033,154.885 28.512,154.807 28.425 C 154.730 28.338,154.667 28.165,154.667 28.041 C 154.667 27.917,154.525 27.500,154.353 27.116 C 152.740 23.522,152.750 23.606,153.900 23.008 C 154.647 22.619,156.207 21.242,156.847 20.406 C 159.167 17.377,158.932 11.456,156.380 8.668 C 156.171 8.440,156.000 8.212,156.000 8.161 C 156.000 8.048,154.417 6.831,153.934 6.573 C 153.741 6.470,153.316 6.233,152.990 6.047 C 151.536 5.216,150.642 5.149,139.625 5.045 L 129.333 4.947 129.333 21.307 M163.000 21.333 L 163.000 37.667 167.167 37.667 L 171.333 37.667 171.329 28.792 C 171.327 23.910,171.260 19.636,171.181 19.293 C 171.096 18.928,171.097 18.707,171.184 18.761 C 171.266 18.812,171.333 18.955,171.333 19.079 C 171.333 19.204,171.393 19.331,171.465 19.361 C 171.537 19.392,171.798 19.829,172.043 20.333 C 172.644 21.569,175.007 25.581,176.314 27.586 C 177.011 28.656,177.162 28.901,177.284 29.167 C 177.348 29.304,177.462 29.492,177.537 29.583 C 177.862 29.977,179.833 33.210,179.833 33.348 C 179.833 33.432,179.900 33.500,179.982 33.500 C 180.064 33.500,180.178 33.688,180.235 33.917 C 180.293 34.146,180.413 34.333,180.503 34.333 C 180.593 34.333,180.667 34.406,180.667 34.495 C 180.667 34.584,180.985 35.166,181.375 35.788 C 181.765 36.411,182.166 37.070,182.268 37.252 C 182.444 37.567,182.658 37.585,186.726 37.628 L 191.000 37.672 191.000 21.336 L 191.000 5.000 186.833 5.000 L 182.667 5.000 182.673 10.708 C 182.678 15.876,182.835 19.739,183.093 21.083 C 183.217 21.731,182.798 21.277,182.364 20.292 C 182.212 19.948,182.031 19.667,181.961 19.667 C 181.891 19.667,181.833 19.586,181.833 19.488 C 181.833 19.253,180.718 17.408,178.397 13.807 C 177.354 12.188,176.500 10.782,176.500 10.682 C 176.500 10.582,176.425 10.500,176.333 10.500 C 176.242 10.500,176.167 10.422,176.167 10.326 C 176.167 10.231,176.089 10.062,175.994 9.951 C 175.898 9.841,175.486 9.225,175.078 8.583 C 174.669 7.942,174.222 7.270,174.084 7.091 C 173.946 6.912,173.833 6.668,173.833 6.549 C 173.833 6.431,173.758 6.333,173.667 6.333 C 173.575 6.333,173.500 6.251,173.500 6.151 C 173.500 6.050,173.345 5.750,173.155 5.484 L 172.811 5.000 167.905 5.000 L 163.000 5.000 163.000 21.333 M203.586 5.604 C 203.447 5.936,203.333 6.287,203.333 6.384 C 203.333 6.482,203.182 7.016,202.996 7.572 C 202.641 8.639,202.539 8.975,202.083 10.583 C 201.927 11.133,201.737 11.733,201.660 11.917 C 201.583 12.100,201.323 12.925,201.082 13.750 C 200.842 14.575,200.510 15.662,200.345 16.167 C 200.180 16.671,199.841 17.758,199.593 18.583 C 199.345 19.408,198.851 21.021,198.497 22.167 C 198.142 23.313,197.652 24.925,197.408 25.750 C 197.164 26.575,196.903 27.400,196.828 27.583 C 196.687 27.928,196.251 29.346,195.753 31.083 C 195.596 31.633,195.404 32.233,195.326 32.417 C 195.249 32.600,194.992 33.425,194.754 34.250 C 194.517 35.075,194.212 36.087,194.077 36.500 C 193.942 36.912,193.832 37.344,193.833 37.458 C 193.833 37.619,194.787 37.667,198.043 37.667 L 202.252 37.667 202.468 36.958 C 202.587 36.569,203.026 35.181,203.444 33.875 L 204.203 31.500 206.810 31.501 C 208.244 31.501,210.139 31.550,211.021 31.608 L 212.626 31.714 212.975 32.815 C 213.166 33.421,213.432 34.329,213.566 34.833 C 213.700 35.337,213.932 36.181,214.083 36.708 L 214.357 37.667 219.595 37.667 C 225.279 37.667,224.986 37.720,224.687 36.733 C 224.081 34.733,223.438 32.695,223.324 32.417 C 223.249 32.233,223.141 31.896,223.084 31.667 C 223.028 31.438,222.616 30.087,222.169 28.667 C 221.356 26.078,220.370 22.924,218.913 18.250 C 218.485 16.875,217.915 15.075,217.647 14.250 C 217.379 13.425,217.058 12.412,216.934 12.000 C 216.265 9.785,215.591 7.654,215.327 6.917 C 215.162 6.458,214.985 5.889,214.934 5.651 C 214.819 5.123,213.428 5.002,207.461 5.001 L 203.838 5.000 203.586 5.604 M16.757 12.570 C 18.877 13.628,18.855 16.686,16.721 17.583 C 16.115 17.838,13.157 18.167,11.471 18.167 L 10.333 18.167 10.333 15.140 L 10.333 12.114 13.294 12.217 C 15.422 12.291,16.396 12.390,16.757 12.570 M111.510 12.558 C 113.471 13.959,114.336 16.566,114.332 21.069 C 114.326 28.202,111.938 31.715,108.250 30.019 C 104.585 28.334,104.091 16.515,107.548 13.196 C 108.558 12.226,110.587 11.899,111.510 12.558 M146.130 12.648 C 148.142 13.674,148.101 16.726,146.064 17.580 C 145.431 17.845,142.607 18.167,140.910 18.167 L 139.667 18.167 139.667 15.141 L 139.667 12.116 142.560 12.210 C 145.039 12.290,145.551 12.353,146.130 12.648 M46.059 16.917 C 46.204 17.467,46.520 18.629,46.761 19.500 C 47.003 20.371,47.272 21.346,47.359 21.667 C 47.528 22.283,47.736 23.004,47.925 23.625 L 48.039 24.000 45.690 24.000 L 43.342 24.000 43.435 23.458 C 43.523 22.944,43.882 21.570,44.164 20.667 C 44.236 20.438,44.389 19.912,44.505 19.500 C 44.620 19.087,44.816 18.429,44.941 18.036 C 45.065 17.643,45.167 17.141,45.167 16.921 C 45.167 16.700,45.242 16.473,45.333 16.417 C 45.425 16.360,45.500 16.153,45.500 15.957 C 45.500 15.368,45.773 15.838,46.059 16.917 M208.812 17.125 C 209.283 18.939,209.384 19.297,209.833 20.750 C 210.032 21.392,210.266 22.217,210.353 22.583 C 210.441 22.950,210.549 23.371,210.593 23.518 C 210.662 23.744,210.455 23.805,209.290 23.899 C 207.400 24.053,205.944 23.879,206.094 23.518 C 206.155 23.370,206.267 23.025,206.343 22.750 C 206.419 22.475,206.565 21.950,206.668 21.583 C 206.771 21.217,206.958 20.504,207.083 20.000 C 207.209 19.496,207.387 18.821,207.478 18.500 C 207.570 18.179,207.774 17.410,207.933 16.792 C 208.303 15.352,208.356 15.372,208.812 17.125 " stroke="none" fill="#bc1c14" fill-rule="evenodd"></path><path id="path1" d="M361.500 0.188 C 359.883 0.626,358.709 1.597,358.023 3.067 L 357.641 3.884 357.709 21.317 C 357.786 40.897,357.690 39.546,359.098 40.910 C 360.479 42.247,361.448 42.500,365.192 42.500 L 368.125 42.500 368.230 41.542 C 368.380 40.176,368.641 27.068,368.669 19.500 C 368.697 12.096,368.737 11.793,369.750 11.264 C 370.548 10.848,384.360 10.631,386.721 10.997 C 389.137 11.372,389.210 11.540,389.302 16.958 L 389.373 21.167 390.228 21.164 C 392.646 21.155,395.520 20.382,399.290 18.727 L 399.997 18.417 399.998 10.878 L 400.000 3.340 399.435 2.462 C 398.499 1.007,397.891 0.580,396.250 0.227 C 395.025 -0.037,362.465 -0.073,361.500 0.188 M269.333 21.306 L 269.333 37.667 274.667 37.667 L 280.000 37.667 280.000 31.833 L 280.000 26.000 282.792 25.998 C 286.528 25.996,289.376 25.626,291.167 24.909 C 300.338 21.238,299.137 7.446,289.470 5.420 C 288.499 5.217,286.323 5.142,278.792 5.055 L 269.333 4.945 269.333 21.306 M306.448 5.119 C 306.191 5.159,305.953 5.279,305.921 5.387 C 305.888 5.495,305.733 6.033,305.577 6.583 C 305.305 7.541,305.137 8.087,304.373 10.500 C 304.184 11.096,303.826 12.258,303.577 13.083 C 303.328 13.908,302.992 14.996,302.831 15.500 C 302.669 16.004,302.425 16.792,302.287 17.250 C 301.912 18.500,299.800 25.342,298.480 29.583 C 298.023 31.050,297.457 32.887,297.220 33.667 C 296.984 34.446,296.651 35.501,296.479 36.011 C 296.307 36.521,296.167 37.104,296.167 37.306 L 296.167 37.672 300.357 37.628 L 304.547 37.583 304.949 36.250 C 305.170 35.517,305.450 34.579,305.569 34.167 C 305.689 33.754,305.917 32.985,306.076 32.458 L 306.364 31.500 310.161 31.500 C 315.004 31.500,314.934 31.486,315.150 32.495 C 315.243 32.929,315.500 33.840,315.720 34.517 C 315.940 35.195,316.251 36.181,316.409 36.708 L 316.698 37.667 321.988 37.667 L 327.279 37.667 326.818 36.208 C 325.355 31.584,324.283 28.188,324.150 27.750 C 324.066 27.475,323.781 26.575,323.517 25.750 C 323.253 24.925,322.924 23.875,322.786 23.417 C 322.530 22.566,322.144 21.329,320.757 16.917 C 319.729 13.645,318.984 11.266,318.410 9.417 C 318.154 8.592,317.742 7.279,317.494 6.500 L 317.045 5.083 311.981 5.065 C 309.195 5.056,306.706 5.080,306.448 5.119 M285.589 13.173 C 287.479 14.139,287.520 17.111,285.656 18.033 C 285.076 18.320,282.380 18.667,280.732 18.667 L 279.833 18.667 279.833 15.655 L 279.833 12.643 282.297 12.696 C 284.548 12.745,284.833 12.787,285.589 13.173 M311.341 17.917 C 311.418 18.192,311.554 18.679,311.644 19.000 C 311.835 19.686,312.629 22.678,312.827 23.458 L 312.965 24.000 310.649 24.000 C 309.375 24.000,308.333 23.937,308.333 23.860 C 308.333 23.734,308.795 21.928,309.182 20.542 C 309.487 19.450,309.689 18.738,309.833 18.250 C 309.914 17.975,310.110 17.225,310.269 16.583 L 310.558 15.417 310.879 16.417 C 311.055 16.967,311.263 17.642,311.341 17.917 " stroke="none" fill="#1661c7" fill-rule="evenodd"></path><path id="path2" d="M399.167 18.832 C 396.351 20.365,393.685 20.995,389.250 21.172 C 387.097 21.258,385.205 21.418,384.667 21.558 C 383.474 21.868,382.159 22.302,381.794 22.505 C 381.635 22.594,381.431 22.667,381.340 22.667 C 380.353 22.667,376.274 25.380,374.333 27.328 C 370.555 31.119,368.683 35.222,368.373 40.386 L 368.246 42.500 373.770 42.500 L 379.295 42.500 379.415 41.376 C 379.922 36.644,384.666 32.065,389.125 32.003 C 389.287 32.001,389.333 33.160,389.333 37.250 L 389.333 42.500 392.439 42.500 C 397.169 42.500,398.282 42.056,399.647 39.620 C 400.009 38.974,400.231 18.487,399.875 18.507 C 399.806 18.511,399.488 18.657,399.167 18.832 " stroke="none" fill="#fbc324" fill-rule="evenodd"></path><path id="path3" d="" stroke="none" fill="#849474" fill-rule="evenodd"></path><path id="path4" d="" stroke="none" fill="#4878a4" fill-rule="evenodd"></path></g></svg>