<svg id="svg" version="1.1" xmlns="http://www.w3.org/2000/svg" xmlns:xlink="http://www.w3.org/1999/xlink" width="400" height="400" viewBox="0, 0, 400,400"><g id="svgg"><path id="path0" d="M82.100 0.513 C 80.505 0.732,79.200 1.052,79.200 1.224 C 79.200 1.396,78.030 1.662,76.600 1.815 C 75.170 1.968,74.000 2.273,74.000 2.493 C 74.000 2.713,73.640 2.799,73.200 2.684 C 72.760 2.569,72.400 2.618,72.400 2.792 C 72.400 2.966,71.590 3.231,70.600 3.379 C 69.610 3.528,68.800 3.818,68.800 4.025 C 68.800 4.231,68.440 4.400,68.000 4.400 C 67.560 4.400,67.200 4.563,67.200 4.763 C 67.200 4.962,66.840 5.031,66.400 4.916 C 65.956 4.800,65.600 4.904,65.600 5.149 C 65.600 5.392,64.880 5.706,64.000 5.846 C 63.120 5.987,62.400 6.270,62.400 6.475 C 62.400 6.680,62.220 6.736,62.000 6.600 C 61.780 6.464,61.600 6.524,61.600 6.733 C 61.600 6.942,61.107 7.237,60.504 7.388 C 59.901 7.540,59.316 7.784,59.204 7.932 C 59.092 8.079,58.460 8.482,57.800 8.827 C 57.100 9.193,56.625 9.746,56.660 10.154 C 56.693 10.539,56.620 10.753,56.497 10.630 C 56.374 10.507,56.032 10.607,55.737 10.852 C 55.442 11.097,55.200 11.134,55.200 10.935 C 55.200 10.735,54.840 10.571,54.400 10.571 C 53.960 10.571,53.600 10.693,53.600 10.842 C 53.600 10.991,53.150 11.226,52.600 11.364 C 52.050 11.502,51.600 11.792,51.600 12.008 C 51.600 12.223,51.358 12.400,51.061 12.400 C 50.765 12.400,50.107 12.760,49.600 13.200 C 49.093 13.640,48.435 14.000,48.139 14.000 C 47.842 14.000,47.600 14.191,47.600 14.424 C 47.600 14.657,47.434 14.745,47.232 14.620 C 47.030 14.495,46.528 14.820,46.117 15.342 C 45.706 15.865,44.971 16.419,44.485 16.573 C 43.998 16.728,43.600 17.022,43.600 17.227 C 43.600 17.432,43.362 17.600,43.072 17.600 C 42.782 17.600,42.153 18.050,41.675 18.600 C 41.197 19.150,40.579 19.608,40.303 19.617 C 40.026 19.626,39.358 20.166,38.819 20.817 C 38.279 21.468,37.598 22.000,37.306 22.000 C 37.014 22.000,36.671 22.270,36.545 22.600 C 36.418 22.930,36.093 23.200,35.821 23.200 C 35.550 23.200,34.788 23.785,34.127 24.500 C 33.465 25.215,32.311 26.372,31.562 27.070 C 28.096 30.303,23.200 35.483,23.200 35.918 C 23.200 36.183,23.011 36.400,22.781 36.400 C 22.550 36.400,22.107 36.985,21.796 37.700 C 21.486 38.415,21.224 38.856,21.216 38.679 C 21.192 38.194,19.200 40.450,19.200 40.962 C 19.200 41.207,18.840 41.632,18.400 41.907 C 17.960 42.182,17.600 42.675,17.600 43.003 C 17.600 43.332,17.423 43.600,17.208 43.600 C 16.992 43.600,16.706 44.037,16.572 44.571 C 16.437 45.105,16.074 45.639,15.764 45.759 C 15.454 45.878,15.200 46.251,15.200 46.587 C 15.200 46.924,15.016 47.200,14.791 47.200 C 14.567 47.200,14.164 47.695,13.896 48.300 C 13.628 48.905,13.182 49.638,12.905 49.929 C 12.627 50.219,12.400 50.714,12.400 51.029 C 12.400 51.343,12.223 51.600,12.008 51.600 C 11.792 51.600,11.502 52.050,11.364 52.600 C 11.226 53.150,10.983 53.600,10.823 53.600 C 10.664 53.600,10.532 53.825,10.531 54.100 C 10.528 54.674,8.350 59.297,7.937 59.604 C 7.787 59.716,7.540 60.301,7.388 60.904 C 7.237 61.507,6.953 62.000,6.757 62.000 C 6.560 62.000,6.400 62.270,6.400 62.600 C 6.400 62.930,6.580 63.200,6.800 63.200 C 7.020 63.200,7.200 63.470,7.200 63.800 C 7.200 64.133,6.844 64.400,6.400 64.400 C 5.956 64.400,5.600 64.667,5.600 65.000 C 5.600 65.330,5.440 65.600,5.245 65.600 C 5.049 65.600,4.771 66.230,4.626 67.000 C 4.482 67.770,4.208 68.400,4.017 68.400 C 3.826 68.400,3.549 69.119,3.400 69.998 C 3.252 70.877,2.990 71.682,2.819 71.788 C 2.647 71.894,2.594 72.435,2.700 72.990 C 2.806 73.546,2.713 74.000,2.493 74.000 C 2.273 74.000,1.968 75.170,1.815 76.600 C 1.662 78.030,1.403 79.200,1.240 79.200 C 0.089 79.200,-0.000 87.832,-0.000 200.000 C -0.000 312.168,0.089 320.800,1.240 320.800 C 1.403 320.800,1.662 321.970,1.815 323.400 C 1.968 324.830,2.273 326.000,2.493 326.000 C 2.713 326.000,2.806 326.454,2.700 327.010 C 2.594 327.565,2.643 328.103,2.808 328.205 C 2.974 328.307,3.228 329.023,3.373 329.796 C 3.518 330.568,3.788 331.200,3.974 331.200 C 4.159 331.200,4.434 331.856,4.584 332.657 C 4.929 334.493,5.900 335.602,6.430 334.765 C 6.659 334.404,6.790 334.372,6.794 334.676 C 6.797 334.938,6.620 335.264,6.400 335.400 C 5.866 335.730,5.886 337.600,6.424 337.600 C 6.657 337.600,6.736 337.780,6.600 338.000 C 6.464 338.220,6.531 338.400,6.749 338.400 C 6.968 338.400,7.272 338.805,7.427 339.300 C 7.581 339.795,7.820 340.290,7.958 340.400 C 8.401 340.754,10.533 345.256,10.533 345.838 C 10.533 346.147,10.664 346.400,10.823 346.400 C 10.983 346.400,11.226 346.850,11.364 347.400 C 11.502 347.950,11.792 348.400,12.008 348.400 C 12.223 348.400,12.400 348.642,12.400 348.939 C 12.400 349.235,12.760 349.893,13.200 350.400 C 13.640 350.907,14.000 351.571,14.000 351.874 C 14.000 352.177,14.270 352.529,14.600 352.655 C 14.930 352.782,15.200 353.142,15.200 353.455 C 15.200 353.769,15.454 354.122,15.764 354.241 C 16.074 354.361,16.437 354.895,16.572 355.429 C 16.706 355.963,16.992 356.400,17.208 356.400 C 17.423 356.400,17.600 356.638,17.600 356.928 C 17.600 357.218,18.050 357.847,18.600 358.325 C 19.150 358.803,19.600 359.376,19.600 359.597 C 19.600 360.067,21.192 361.746,21.216 361.300 C 21.224 361.135,21.486 361.585,21.796 362.300 C 22.107 363.015,22.550 363.600,22.781 363.600 C 23.011 363.600,23.202 363.825,23.205 364.100 C 23.210 364.612,35.223 376.800,35.723 376.800 C 36.004 376.800,36.194 376.954,38.956 379.414 C 39.812 380.176,40.713 380.800,40.960 380.800 C 41.206 380.800,41.632 381.160,41.907 381.600 C 42.182 382.040,42.675 382.400,43.003 382.400 C 43.332 382.400,43.600 382.577,43.600 382.792 C 43.600 383.008,44.037 383.294,44.571 383.428 C 45.105 383.563,45.639 383.926,45.759 384.236 C 45.878 384.546,46.231 384.800,46.545 384.800 C 46.858 384.800,47.218 385.070,47.345 385.400 C 47.471 385.730,47.823 386.000,48.126 386.000 C 48.429 386.000,49.093 386.360,49.600 386.800 C 50.107 387.240,50.765 387.600,51.061 387.600 C 51.358 387.600,51.600 387.777,51.600 387.992 C 51.600 388.208,52.050 388.498,52.600 388.636 C 53.150 388.774,53.600 389.058,53.600 389.267 C 53.600 389.476,53.780 389.536,54.000 389.400 C 54.220 389.264,54.400 389.343,54.400 389.576 C 54.400 389.809,54.777 390.000,55.237 390.000 C 55.697 390.000,56.531 390.360,57.091 390.800 C 57.650 391.240,58.354 391.600,58.654 391.600 C 58.954 391.600,59.200 391.766,59.200 391.968 C 59.200 392.171,59.740 392.455,60.400 392.600 C 61.060 392.745,61.600 393.040,61.600 393.255 C 61.600 393.471,61.773 393.540,61.984 393.410 C 62.195 393.280,62.758 393.404,63.236 393.686 C 63.927 394.095,64.142 394.098,64.286 393.700 C 64.385 393.425,64.767 393.214,65.133 393.232 C 65.549 393.251,65.612 393.339,65.300 393.465 C 64.604 393.746,64.673 394.400,65.400 394.400 C 65.730 394.400,66.000 394.599,66.000 394.843 C 66.000 395.086,66.270 395.182,66.600 395.055 C 66.930 394.929,67.200 394.999,67.200 395.213 C 67.200 395.426,67.560 395.600,68.000 395.600 C 68.440 395.600,68.800 395.769,68.800 395.975 C 68.800 396.182,69.610 396.472,70.600 396.621 C 71.590 396.769,72.400 397.034,72.400 397.208 C 72.400 397.382,72.760 397.431,73.200 397.316 C 73.640 397.201,74.000 397.293,74.000 397.522 C 74.000 397.750,75.170 398.062,76.600 398.215 C 78.030 398.368,79.200 398.620,79.200 398.775 C 79.200 399.909,88.131 400.000,200.045 400.001 C 311.645 400.001,320.400 399.913,320.400 398.791 C 320.400 398.633,321.660 398.379,323.200 398.227 C 324.740 398.076,326.000 397.761,326.000 397.529 C 326.000 397.297,326.360 397.201,326.800 397.316 C 327.240 397.431,327.600 397.382,327.600 397.208 C 327.600 397.034,328.410 396.769,329.400 396.621 C 330.390 396.472,331.200 396.202,331.200 396.020 C 331.200 395.838,331.830 395.571,332.600 395.426 C 333.370 395.282,334.000 394.992,334.000 394.782 C 334.000 394.572,334.258 394.400,334.574 394.400 C 334.890 394.400,335.655 394.191,336.274 393.935 C 336.893 393.680,337.535 393.500,337.700 393.535 C 337.865 393.571,338.000 393.440,338.000 393.245 C 338.000 393.049,338.630 392.771,339.400 392.626 C 340.170 392.482,340.800 392.192,340.800 391.982 C 340.800 391.772,341.046 391.600,341.346 391.600 C 341.646 391.600,342.350 391.240,342.909 390.800 C 343.469 390.360,344.303 390.000,344.763 390.000 C 345.223 390.000,345.600 389.809,345.600 389.576 C 345.600 389.343,345.780 389.264,346.000 389.400 C 346.220 389.536,346.400 389.460,346.400 389.231 C 346.400 389.002,346.850 388.702,347.400 388.564 C 347.950 388.426,348.400 388.153,348.400 387.957 C 348.400 387.760,348.642 387.600,348.939 387.600 C 349.235 387.600,349.893 387.240,350.400 386.800 C 350.907 386.360,351.571 386.000,351.874 386.000 C 352.177 386.000,352.529 385.730,352.655 385.400 C 352.782 385.070,353.142 384.800,353.455 384.800 C 353.769 384.800,354.122 384.546,354.241 384.236 C 354.361 383.926,354.895 383.563,355.429 383.428 C 355.963 383.294,356.400 383.008,356.400 382.792 C 356.400 382.577,356.637 382.400,356.926 382.400 C 357.216 382.400,358.011 381.770,358.692 381.000 C 359.374 380.230,360.100 379.600,360.305 379.600 C 360.510 379.600,361.067 379.285,361.543 378.900 C 362.018 378.515,362.893 377.840,363.487 377.400 C 366.771 374.967,378.400 362.724,378.400 361.699 C 378.400 361.351,378.505 361.172,378.633 361.300 C 378.919 361.585,380.400 360.158,380.400 359.597 C 380.400 359.376,380.850 358.803,381.400 358.325 C 381.950 357.847,382.400 357.218,382.400 356.928 C 382.400 356.638,382.577 356.400,382.792 356.400 C 383.008 356.400,383.294 355.963,383.428 355.429 C 383.563 354.895,383.926 354.361,384.236 354.241 C 384.546 354.122,384.800 353.769,384.800 353.455 C 384.800 353.142,385.070 352.782,385.400 352.655 C 385.730 352.529,386.000 352.177,386.000 351.874 C 386.000 351.571,386.360 350.907,386.800 350.400 C 387.240 349.893,387.600 349.235,387.600 348.939 C 387.600 348.642,387.777 348.400,387.992 348.400 C 388.208 348.400,388.498 347.950,388.636 347.400 C 388.774 346.850,389.058 346.400,389.267 346.400 C 389.476 346.400,389.536 346.220,389.400 346.000 C 389.264 345.780,389.320 345.600,389.525 345.600 C 389.730 345.600,390.013 344.880,390.154 344.000 C 390.294 343.120,390.575 342.400,390.778 342.400 C 390.980 342.400,391.272 342.003,391.426 341.519 C 391.580 341.034,391.952 340.391,392.253 340.090 C 392.554 339.789,392.800 339.286,392.800 338.971 C 392.800 338.657,392.991 338.400,393.224 338.400 C 393.457 338.400,393.536 338.220,393.400 338.000 C 393.264 337.780,393.320 337.600,393.525 337.600 C 393.730 337.600,394.013 336.880,394.154 336.000 C 394.294 335.120,394.572 334.400,394.770 334.400 C 394.968 334.400,395.251 333.680,395.400 332.800 C 395.549 331.920,395.823 331.200,396.011 331.200 C 396.198 331.200,396.472 330.390,396.621 329.400 C 396.769 328.410,397.070 327.600,397.288 327.600 C 397.507 327.600,397.584 327.336,397.460 327.013 C 397.336 326.690,397.397 326.326,397.594 326.204 C 397.792 326.082,398.077 324.726,398.228 323.191 C 398.380 321.656,398.633 320.400,398.791 320.400 C 399.913 320.400,400.001 311.644,400.001 200.000 C 400.001 88.356,399.913 79.600,398.791 79.600 C 398.633 79.600,398.380 78.344,398.228 76.809 C 398.077 75.274,397.792 73.918,397.594 73.796 C 397.397 73.674,397.336 73.310,397.460 72.987 C 397.584 72.664,397.507 72.400,397.288 72.400 C 397.070 72.400,396.769 71.590,396.621 70.600 C 396.472 69.610,396.198 68.800,396.011 68.800 C 395.823 68.800,395.549 68.080,395.400 67.200 C 395.251 66.320,394.968 65.600,394.770 65.600 C 394.572 65.600,394.294 64.880,394.154 64.000 C 394.013 63.120,393.730 62.400,393.525 62.400 C 393.320 62.400,393.264 62.220,393.400 62.000 C 393.536 61.780,393.460 61.600,393.231 61.600 C 393.002 61.600,392.702 61.150,392.564 60.600 C 392.426 60.050,392.172 59.600,392.000 59.600 C 391.828 59.600,391.574 59.150,391.436 58.600 C 391.298 58.050,391.010 57.600,390.797 57.600 C 390.584 57.600,390.294 56.880,390.154 56.000 C 390.013 55.120,389.730 54.400,389.525 54.400 C 389.320 54.400,389.264 54.220,389.400 54.000 C 389.536 53.780,389.476 53.600,389.267 53.600 C 389.058 53.600,388.774 53.150,388.636 52.600 C 388.498 52.050,388.208 51.600,387.992 51.600 C 387.777 51.600,387.600 51.358,387.600 51.061 C 387.600 50.765,387.240 50.107,386.800 49.600 C 386.360 49.093,386.000 48.429,386.000 48.126 C 386.000 47.823,385.730 47.471,385.400 47.345 C 385.070 47.218,384.800 46.858,384.800 46.545 C 384.800 46.231,384.546 45.878,384.236 45.759 C 383.926 45.639,383.563 45.105,383.428 44.571 C 383.294 44.037,383.008 43.600,382.792 43.600 C 382.577 43.600,382.400 43.362,382.400 43.072 C 382.400 42.782,381.950 42.153,381.400 41.675 C 380.850 41.197,380.400 40.624,380.400 40.403 C 380.400 39.933,378.808 38.254,378.784 38.700 C 378.776 38.865,378.514 38.415,378.204 37.700 C 377.893 36.985,377.450 36.400,377.219 36.400 C 376.989 36.400,376.798 36.175,376.795 35.900 C 376.788 35.259,364.712 23.200,364.077 23.200 C 363.815 23.200,363.600 23.014,363.600 22.787 C 363.600 22.561,363.285 22.260,362.900 22.120 C 362.515 21.980,361.606 21.266,360.881 20.533 C 360.155 19.800,359.343 19.200,359.077 19.200 C 358.810 19.200,358.368 18.840,358.093 18.400 C 357.818 17.960,357.325 17.600,356.997 17.600 C 356.668 17.600,356.400 17.432,356.400 17.227 C 356.400 17.022,356.002 16.728,355.515 16.573 C 355.029 16.419,354.294 15.865,353.883 15.342 C 353.472 14.820,352.970 14.495,352.768 14.620 C 352.566 14.745,352.400 14.657,352.400 14.424 C 352.400 14.191,352.158 14.000,351.861 14.000 C 351.565 14.000,350.907 13.640,350.400 13.200 C 349.893 12.760,349.235 12.400,348.939 12.400 C 348.642 12.400,348.400 12.223,348.400 12.008 C 348.400 11.792,347.950 11.502,347.400 11.364 C 346.850 11.226,346.400 10.942,346.400 10.733 C 346.400 10.524,346.220 10.464,346.000 10.600 C 345.780 10.736,345.600 10.657,345.600 10.424 C 345.600 9.826,343.709 9.894,343.465 10.500 C 343.354 10.775,343.249 10.579,343.232 10.065 C 343.209 9.409,342.843 8.996,342.000 8.678 C 341.340 8.428,340.800 8.098,340.800 7.944 C 340.800 7.790,340.260 7.545,339.600 7.400 C 338.940 7.255,338.400 6.960,338.400 6.745 C 338.400 6.529,338.227 6.460,338.016 6.590 C 337.805 6.720,337.242 6.596,336.764 6.314 C 336.073 5.905,335.858 5.902,335.714 6.300 C 335.615 6.575,335.233 6.786,334.867 6.768 C 334.451 6.749,334.388 6.661,334.700 6.535 C 335.396 6.254,335.327 5.600,334.600 5.600 C 334.270 5.600,334.000 5.401,334.000 5.157 C 334.000 4.914,333.730 4.818,333.400 4.945 C 333.070 5.071,332.800 5.001,332.800 4.787 C 332.800 4.574,332.440 4.400,332.000 4.400 C 331.560 4.400,331.200 4.231,331.200 4.025 C 331.200 3.818,330.390 3.528,329.400 3.379 C 328.410 3.231,327.600 2.966,327.600 2.792 C 327.600 2.618,327.240 2.569,326.800 2.684 C 326.360 2.799,326.000 2.713,326.000 2.493 C 326.000 2.273,324.830 1.968,323.400 1.815 C 321.970 1.662,320.800 1.403,320.800 1.240 C 320.800 -0.002,90.967 -0.702,82.100 0.513 M300.800 35.750 C 300.800 36.320,302.462 36.800,304.437 36.800 C 305.284 36.800,305.516 36.647,305.345 36.200 C 305.218 35.870,305.314 35.600,305.557 35.600 C 305.801 35.600,306.000 35.870,306.000 36.200 C 306.000 36.530,306.270 36.800,306.600 36.800 C 306.930 36.800,307.200 36.940,307.200 37.110 C 307.200 37.281,307.920 37.399,308.800 37.374 C 309.680 37.348,310.400 37.479,310.400 37.664 C 310.400 38.192,311.510 38.057,311.743 37.500 C 311.894 37.142,312.079 37.199,312.397 37.700 C 312.679 38.146,313.341 38.400,314.220 38.400 C 314.979 38.400,315.600 38.560,315.600 38.755 C 315.600 38.950,316.410 39.231,317.400 39.379 C 318.390 39.528,319.200 39.802,319.200 39.989 C 319.200 40.177,319.919 40.451,320.798 40.600 C 321.677 40.748,322.499 41.037,322.626 41.241 C 322.752 41.446,323.023 41.509,323.228 41.383 C 323.432 41.256,323.600 41.329,323.600 41.545 C 323.600 41.760,324.140 42.055,324.800 42.200 C 325.460 42.345,326.000 42.615,326.000 42.800 C 326.000 42.985,326.540 43.255,327.200 43.400 C 327.860 43.545,328.400 43.829,328.400 44.032 C 328.400 44.234,328.676 44.400,329.013 44.400 C 329.349 44.400,329.724 44.659,329.846 44.975 C 329.967 45.291,330.321 45.452,330.633 45.332 C 330.945 45.212,331.200 45.314,331.200 45.557 C 331.200 45.801,331.391 46.000,331.624 46.000 C 332.024 46.000,335.091 48.135,336.400 49.325 C 336.730 49.625,337.315 49.984,337.700 50.122 C 338.085 50.261,338.400 50.548,338.400 50.760 C 338.400 50.973,338.760 51.260,339.199 51.400 C 340.305 51.751,348.800 60.343,348.800 61.110 C 348.800 61.453,348.905 61.628,349.033 61.500 C 349.162 61.372,349.627 61.627,350.067 62.067 C 350.507 62.507,350.770 62.964,350.651 63.082 C 350.533 63.201,350.923 63.810,351.518 64.436 C 353.211 66.217,353.481 66.595,353.806 67.631 C 353.973 68.164,354.445 69.029,354.855 69.554 C 355.265 70.079,355.600 70.754,355.600 71.054 C 355.600 71.354,355.766 71.600,355.968 71.600 C 356.171 71.600,356.455 72.140,356.600 72.800 C 356.745 73.460,357.015 74.000,357.200 74.000 C 357.385 74.000,357.655 74.540,357.800 75.200 C 357.945 75.860,358.259 76.400,358.498 76.400 C 358.738 76.400,358.820 76.514,358.681 76.653 C 358.542 76.791,358.692 77.281,359.014 77.742 C 359.336 78.202,359.600 78.988,359.600 79.489 C 359.600 79.990,359.780 80.400,360.000 80.400 C 360.220 80.400,360.401 80.625,360.402 80.900 C 360.404 81.175,360.670 81.909,360.994 82.530 C 361.319 83.152,361.702 84.817,361.847 86.230 C 361.992 87.644,362.285 88.800,362.499 88.800 C 362.713 88.800,362.817 89.402,362.731 90.137 C 362.576 91.466,362.904 92.069,364.018 92.508 C 364.465 92.684,364.438 92.744,363.900 92.768 C 362.716 92.822,363.146 96.361,364.347 96.446 C 364.901 96.486,364.894 96.520,364.300 96.676 C 363.510 96.882,363.221 102.400,364.000 102.400 C 364.266 102.400,364.400 135.267,364.400 200.200 C 364.400 253.990,364.247 298.000,364.060 298.000 C 363.874 298.000,363.616 300.367,363.487 303.260 C 363.358 306.153,363.079 308.628,362.866 308.760 C 362.654 308.892,362.530 309.585,362.591 310.300 C 362.652 311.015,362.562 311.600,362.390 311.600 C 362.219 311.600,361.951 312.697,361.796 314.039 C 361.640 315.380,361.263 316.955,360.959 317.539 C 360.654 318.122,360.404 319.005,360.402 319.500 C 360.401 319.995,360.240 320.400,360.045 320.400 C 359.849 320.400,359.571 321.030,359.426 321.800 C 359.282 322.570,358.998 323.200,358.794 323.200 C 358.591 323.200,358.529 323.470,358.655 323.800 C 358.782 324.130,358.701 324.400,358.475 324.400 C 358.249 324.400,357.945 324.942,357.799 325.603 C 357.654 326.265,357.384 326.714,357.200 326.600 C 357.016 326.486,356.746 326.935,356.601 327.597 C 356.455 328.258,356.171 328.800,355.968 328.800 C 355.766 328.800,355.600 329.048,355.600 329.351 C 355.600 329.654,355.332 330.124,355.004 330.396 C 354.677 330.668,354.507 331.050,354.628 331.245 C 354.749 331.440,354.657 331.600,354.424 331.600 C 354.191 331.600,354.000 331.842,354.000 332.139 C 354.000 332.613,353.634 333.155,352.007 335.083 C 351.783 335.349,351.600 335.745,351.600 335.963 C 351.600 336.182,351.356 336.504,351.058 336.680 C 350.761 336.856,350.282 337.446,349.995 337.991 C 349.709 338.537,348.962 339.432,348.337 339.980 C 347.712 340.529,347.200 341.124,347.200 341.303 C 347.200 341.731,341.724 347.200,341.295 347.200 C 341.112 347.200,340.521 347.732,339.981 348.383 C 339.442 349.034,338.769 349.574,338.487 349.583 C 338.206 349.592,337.872 349.869,337.746 350.198 C 337.619 350.526,337.355 350.696,337.158 350.574 C 336.961 350.452,336.800 350.549,336.800 350.789 C 336.800 351.029,336.485 351.345,336.100 351.492 C 335.715 351.639,335.220 351.907,335.000 352.087 C 334.780 352.267,334.167 352.771,333.639 353.207 C 333.110 353.643,332.435 354.000,332.139 354.000 C 331.842 354.000,331.600 354.191,331.600 354.424 C 331.600 354.657,331.440 354.749,331.245 354.628 C 331.050 354.507,330.668 354.677,330.396 355.004 C 330.124 355.332,329.654 355.600,329.351 355.600 C 329.048 355.600,328.800 355.766,328.800 355.968 C 328.800 356.171,328.260 356.455,327.600 356.600 C 326.940 356.745,326.400 357.026,326.400 357.224 C 326.400 357.422,325.950 357.698,325.400 357.836 C 324.850 357.974,324.400 358.266,324.400 358.486 C 324.400 358.706,324.130 358.782,323.800 358.655 C 323.470 358.529,323.200 358.579,323.200 358.768 C 323.200 358.957,322.570 359.229,321.800 359.374 C 321.030 359.518,320.400 359.808,320.400 360.018 C 320.400 360.228,319.995 360.401,319.500 360.402 C 319.005 360.404,318.122 360.654,317.539 360.959 C 316.955 361.263,315.380 361.640,314.039 361.796 C 312.697 361.951,311.600 362.207,311.600 362.365 C 311.600 362.522,311.015 362.636,310.300 362.618 C 309.585 362.599,308.892 362.734,308.760 362.918 C 308.628 363.102,306.153 363.358,303.260 363.487 C 300.367 363.616,298.000 363.874,298.000 364.060 C 298.000 364.247,253.900 364.400,200.000 364.400 C 134.933 364.400,102.000 364.266,102.000 364.000 C 102.000 363.214,96.806 363.511,96.754 364.300 C 96.713 364.913,96.686 364.918,96.532 364.341 C 96.209 363.123,92.821 362.726,92.768 363.900 C 92.744 364.438,92.684 364.465,92.508 364.018 C 92.069 362.904,91.466 362.576,90.137 362.731 C 89.402 362.817,88.800 362.713,88.800 362.501 C 88.800 362.288,87.685 361.997,86.322 361.855 C 84.960 361.713,83.744 361.433,83.621 361.235 C 83.499 361.036,82.724 360.747,81.899 360.592 C 81.075 360.438,80.400 360.151,80.400 359.955 C 80.400 359.760,79.984 359.600,79.476 359.600 C 78.969 359.600,78.218 359.355,77.808 359.055 C 77.398 358.756,76.734 358.597,76.332 358.702 C 75.929 358.807,75.600 358.692,75.600 358.447 C 75.600 358.201,75.324 358.000,74.987 358.000 C 74.651 358.000,74.276 357.741,74.154 357.424 C 74.033 357.108,73.408 356.734,72.767 356.593 C 72.125 356.452,71.600 356.210,71.600 356.056 C 71.600 355.787,69.646 354.915,69.171 354.972 C 69.046 354.988,68.628 354.685,68.243 354.300 C 67.858 353.915,67.286 353.600,66.971 353.600 C 66.657 353.600,66.400 353.414,66.400 353.187 C 66.400 352.961,66.089 352.656,65.709 352.510 C 65.329 352.364,64.654 351.857,64.209 351.383 C 63.764 350.909,63.208 350.588,62.972 350.670 C 62.737 350.752,62.302 350.364,62.005 349.809 C 61.708 349.254,61.245 348.800,60.976 348.800 C 60.301 348.800,51.713 340.187,51.398 339.193 C 51.257 338.751,51.002 338.475,50.831 338.581 C 50.660 338.686,50.283 338.329,49.993 337.786 C 49.702 337.244,49.315 336.800,49.132 336.800 C 48.950 336.800,48.800 336.556,48.800 336.258 C 48.800 335.959,48.170 334.890,47.400 333.882 C 46.630 332.873,46.000 331.857,46.000 331.624 C 46.000 331.391,45.801 331.200,45.557 331.200 C 45.314 331.200,45.212 330.945,45.332 330.633 C 45.452 330.321,45.291 329.967,44.975 329.846 C 44.659 329.724,44.400 329.349,44.400 329.013 C 44.400 328.676,44.234 328.400,44.032 328.400 C 43.829 328.400,43.545 327.860,43.400 327.200 C 43.255 326.540,42.985 326.000,42.800 326.000 C 42.615 326.000,42.345 325.460,42.200 324.800 C 42.055 324.140,41.760 323.600,41.545 323.600 C 41.329 323.600,41.256 323.432,41.383 323.228 C 41.509 323.023,41.451 322.755,41.252 322.632 C 41.053 322.509,40.772 321.777,40.627 321.004 C 40.482 320.232,40.198 319.600,39.996 319.600 C 39.793 319.600,39.508 318.700,39.362 317.600 C 39.216 316.500,38.940 315.600,38.748 315.600 C 38.557 315.600,38.400 314.953,38.400 314.163 C 38.400 313.062,38.213 312.676,37.600 312.516 C 36.668 312.272,36.521 311.600,37.400 311.600 C 37.730 311.600,38.000 311.330,38.000 311.000 C 38.000 310.670,37.849 310.400,37.664 310.400 C 37.479 310.400,37.348 309.680,37.374 308.800 C 37.399 307.920,37.281 307.200,37.110 307.200 C 36.940 307.200,36.800 306.322,36.800 305.250 C 36.800 302.515,36.395 300.800,35.750 300.800 C 35.285 300.800,35.200 285.291,35.200 200.200 C 35.200 115.317,35.286 99.600,35.748 99.600 C 36.299 99.600,36.787 97.672,36.796 95.457 C 36.799 94.605,36.648 94.373,36.200 94.545 C 35.244 94.911,35.506 94.231,36.489 93.795 C 37.203 93.478,37.380 93.065,37.389 91.700 C 37.395 90.765,37.509 90.000,37.642 90.000 C 37.775 90.000,37.997 88.798,38.134 87.329 C 38.271 85.860,38.545 84.555,38.743 84.429 C 38.940 84.303,39.230 83.435,39.386 82.500 C 39.542 81.565,39.814 80.800,39.991 80.800 C 40.167 80.800,40.429 80.170,40.574 79.400 C 40.718 78.630,41.002 78.000,41.206 78.000 C 41.409 78.000,41.471 77.730,41.345 77.400 C 41.218 77.070,41.299 76.800,41.525 76.800 C 41.751 76.800,42.055 76.260,42.200 75.600 C 42.345 74.940,42.626 74.400,42.824 74.400 C 43.022 74.400,43.298 73.950,43.436 73.400 C 43.574 72.850,43.833 72.400,44.012 72.400 C 44.190 72.400,44.455 71.860,44.600 71.200 C 44.745 70.540,45.024 70.000,45.219 70.000 C 45.415 70.000,45.471 69.730,45.345 69.400 C 45.218 69.070,45.319 68.800,45.570 68.800 C 45.821 68.800,46.155 68.485,46.313 68.100 C 46.713 67.125,48.856 63.968,49.700 63.111 C 50.085 62.720,50.400 62.100,50.400 61.733 C 50.400 61.367,50.502 61.169,50.627 61.293 C 50.751 61.418,51.483 60.890,52.253 60.120 C 53.023 59.350,53.571 58.637,53.470 58.536 C 53.249 58.316,58.740 52.800,59.180 52.800 C 59.349 52.800,60.188 52.176,61.044 51.414 C 63.784 48.973,63.996 48.800,64.242 48.800 C 64.376 48.800,65.167 48.260,66.000 47.600 C 66.833 46.940,67.720 46.400,67.970 46.400 C 68.220 46.400,68.533 46.120,68.664 45.777 C 68.796 45.434,69.150 45.249,69.452 45.364 C 69.753 45.480,70.000 45.415,70.000 45.219 C 70.000 45.024,70.540 44.745,71.200 44.600 C 71.860 44.455,72.400 44.171,72.400 43.968 C 72.400 43.766,72.642 43.600,72.939 43.600 C 73.235 43.600,73.893 43.240,74.400 42.800 C 74.907 42.360,75.655 42.000,76.061 42.000 C 76.468 42.000,76.800 41.801,76.800 41.557 C 76.800 41.314,77.070 41.218,77.400 41.345 C 77.730 41.471,78.000 41.409,78.000 41.206 C 78.000 41.002,78.630 40.718,79.400 40.574 C 80.170 40.429,80.800 40.167,80.800 39.991 C 80.800 39.814,81.565 39.542,82.500 39.386 C 83.435 39.230,84.303 38.940,84.429 38.743 C 84.555 38.545,85.860 38.271,87.329 38.134 C 88.798 37.997,90.000 37.717,90.000 37.512 C 90.000 37.307,90.712 37.190,91.583 37.253 C 92.454 37.316,93.294 37.240,93.450 37.084 C 93.606 36.928,94.378 36.798,95.167 36.796 C 97.647 36.788,99.600 36.326,99.600 35.748 C 99.600 35.286,115.317 35.200,200.200 35.200 C 285.291 35.200,300.800 35.285,300.800 35.750 M307.458 64.706 C 307.316 64.936,306.838 65.031,306.397 64.915 C 305.957 64.800,305.372 64.891,305.098 65.117 C 304.824 65.343,303.925 65.655,303.100 65.809 C 302.275 65.963,301.600 66.268,301.600 66.487 C 301.600 66.706,301.330 66.782,301.000 66.655 C 300.670 66.529,300.400 66.585,300.400 66.781 C 300.400 66.976,299.860 67.255,299.200 67.400 C 298.540 67.545,298.000 67.835,298.000 68.044 C 298.000 68.254,297.689 68.544,297.310 68.690 C 296.096 69.156,294.367 70.937,294.582 71.498 C 294.697 71.797,294.619 71.935,294.408 71.805 C 293.860 71.466,290.530 74.717,289.935 76.173 C 289.659 76.848,289.201 77.638,288.917 77.929 C 288.633 78.219,288.400 78.714,288.400 79.029 C 288.400 79.343,288.220 79.600,288.000 79.600 C 287.780 79.600,287.600 79.870,287.600 80.200 C 287.600 80.530,287.780 80.800,288.000 80.800 C 288.538 80.800,288.513 81.896,287.970 82.077 C 287.734 82.155,287.439 83.336,287.316 84.700 C 287.139 86.649,286.931 87.231,286.345 87.417 C 285.768 87.601,285.600 88.048,285.600 89.400 C 285.600 90.752,285.768 91.199,286.345 91.383 C 286.931 91.569,287.139 92.151,287.316 94.100 C 287.439 95.464,287.734 96.645,287.970 96.723 C 288.513 96.904,288.538 98.000,288.000 98.000 C 287.780 98.000,287.600 98.270,287.600 98.600 C 287.600 98.930,287.766 99.200,287.968 99.200 C 288.171 99.200,288.455 99.740,288.600 100.400 C 288.745 101.060,289.017 101.600,289.205 101.600 C 289.393 101.600,289.674 102.004,289.831 102.497 C 290.184 103.610,296.372 110.000,297.096 110.000 C 297.387 110.000,297.722 110.254,297.841 110.564 C 297.961 110.874,298.538 111.248,299.125 111.396 C 299.712 111.543,300.315 111.863,300.466 112.106 C 300.660 112.421,300.921 112.398,301.370 112.025 C 301.901 111.584,302.000 111.608,302.000 112.180 C 302.000 112.615,302.252 112.807,302.700 112.715 C 303.085 112.636,303.636 112.847,303.925 113.185 C 304.321 113.649,304.501 113.677,304.658 113.300 C 305.005 112.468,307.523 112.688,308.093 113.600 C 308.740 114.636,313.048 114.824,312.655 113.800 C 312.515 113.435,312.655 113.200,313.013 113.200 C 313.336 113.200,313.600 113.380,313.600 113.600 C 313.600 113.820,313.780 114.000,314.000 114.000 C 314.220 114.000,314.400 113.730,314.400 113.400 C 314.400 112.664,316.241 112.578,316.542 113.300 C 316.699 113.677,316.879 113.649,317.275 113.185 C 317.564 112.847,318.115 112.636,318.500 112.715 C 318.956 112.809,319.211 112.604,319.232 112.129 C 319.250 111.709,319.349 111.612,319.465 111.900 C 319.684 112.442,320.800 112.599,320.800 112.088 C 320.800 111.916,321.295 111.554,321.900 111.283 C 325.230 109.794,329.632 106.190,330.162 104.519 C 330.310 104.054,330.694 103.573,331.015 103.450 C 331.337 103.326,331.600 102.949,331.600 102.613 C 331.600 102.276,331.780 102.000,332.000 102.000 C 332.220 102.000,332.400 101.752,332.400 101.449 C 332.400 101.146,332.659 100.683,332.976 100.420 C 333.293 100.157,333.456 99.689,333.337 99.381 C 333.219 99.073,333.410 98.533,333.761 98.182 C 334.113 97.830,334.400 97.121,334.400 96.605 C 334.400 96.089,334.582 95.606,334.804 95.532 C 335.488 95.304,335.844 86.346,335.162 86.523 C 334.853 86.603,334.735 86.593,334.900 86.501 C 335.786 86.005,335.191 83.200,334.200 83.200 C 333.578 83.200,333.200 82.973,333.200 82.600 C 333.200 82.270,333.380 82.000,333.600 82.000 C 333.820 82.000,334.000 81.730,334.000 81.400 C 334.000 81.070,333.708 80.800,333.351 80.800 C 332.899 80.800,332.816 80.648,333.076 80.300 C 333.690 79.477,332.915 77.373,331.742 76.680 C 331.444 76.504,331.200 76.099,331.200 75.780 C 331.200 75.461,331.032 75.200,330.827 75.200 C 330.622 75.200,330.344 74.854,330.210 74.430 C 329.976 73.695,326.800 70.153,326.800 70.628 C 326.800 70.754,326.536 70.619,326.214 70.329 C 325.061 69.289,324.590 68.956,323.900 68.692 C 323.515 68.545,323.200 68.254,323.200 68.044 C 323.200 67.835,322.660 67.545,322.000 67.400 C 321.340 67.255,320.800 66.951,320.800 66.725 C 320.800 66.499,320.530 66.418,320.200 66.545 C 319.870 66.671,319.600 66.609,319.600 66.406 C 319.600 66.202,318.925 65.912,318.100 65.760 C 317.275 65.609,316.494 65.322,316.365 65.124 C 316.012 64.581,307.774 64.195,307.458 64.706 M187.900 99.496 C 186.635 99.575,185.600 99.788,185.600 99.968 C 185.600 100.149,184.160 100.422,182.400 100.576 C 180.640 100.729,179.200 101.010,179.200 101.200 C 179.200 101.390,177.756 101.671,175.991 101.825 C 174.226 101.979,172.691 102.253,172.578 102.435 C 172.466 102.617,172.110 102.664,171.787 102.540 C 171.464 102.416,171.200 102.503,171.200 102.733 C 171.200 102.963,170.390 103.272,169.400 103.421 C 168.410 103.569,167.600 103.835,167.600 104.010 C 167.600 104.186,166.880 104.451,166.000 104.600 C 165.120 104.749,164.400 105.026,164.400 105.217 C 164.400 105.408,163.770 105.682,163.000 105.826 C 162.230 105.971,161.600 106.268,161.600 106.487 C 161.600 106.706,161.330 106.782,161.000 106.655 C 160.670 106.529,160.400 106.585,160.400 106.781 C 160.400 106.976,159.860 107.255,159.200 107.400 C 158.540 107.545,158.000 107.815,158.000 108.000 C 158.000 108.185,157.460 108.455,156.800 108.600 C 156.140 108.745,155.600 109.029,155.600 109.232 C 155.600 109.434,155.343 109.600,155.029 109.600 C 154.714 109.600,154.176 109.881,153.832 110.226 C 153.488 110.570,153.025 110.739,152.803 110.602 C 152.581 110.465,152.400 110.529,152.400 110.745 C 152.400 110.960,151.860 111.255,151.200 111.400 C 150.540 111.545,150.000 111.829,150.000 112.032 C 150.000 112.234,149.724 112.400,149.387 112.400 C 149.051 112.400,148.678 112.654,148.559 112.964 C 148.439 113.274,147.905 113.637,147.371 113.772 C 146.837 113.906,146.400 114.202,146.400 114.431 C 146.400 114.660,146.220 114.736,146.000 114.600 C 145.780 114.464,145.600 114.531,145.600 114.749 C 145.600 114.968,145.231 115.263,144.780 115.406 C 144.328 115.550,143.383 116.189,142.680 116.827 C 140.523 118.781,140.009 119.200,139.767 119.200 C 139.481 119.200,135.912 122.048,135.506 122.600 C 135.310 122.867,135.209 122.867,135.201 122.600 C 135.195 122.380,134.479 122.965,133.611 123.900 C 132.743 124.835,131.851 125.600,131.630 125.600 C 131.409 125.600,129.961 126.866,128.414 128.414 C 126.866 129.961,125.600 131.409,125.600 131.630 C 125.600 131.851,124.835 132.743,123.900 133.611 C 122.965 134.479,122.380 135.195,122.600 135.201 C 122.867 135.209,122.867 135.310,122.600 135.506 C 121.849 136.058,119.200 139.534,119.200 139.967 C 119.200 140.205,119.011 140.400,118.781 140.400 C 118.550 140.400,118.107 140.985,117.796 141.700 C 117.486 142.415,117.224 142.865,117.216 142.700 C 117.188 142.175,115.690 143.887,115.413 144.761 C 115.266 145.222,114.968 145.600,114.749 145.600 C 114.531 145.600,114.464 145.780,114.600 146.000 C 114.736 146.220,114.660 146.400,114.431 146.400 C 114.202 146.400,113.906 146.837,113.772 147.371 C 113.637 147.905,113.274 148.439,112.964 148.559 C 112.654 148.678,112.400 149.051,112.400 149.387 C 112.400 149.724,112.234 150.000,112.032 150.000 C 111.829 150.000,111.538 150.570,111.385 151.267 C 111.232 151.963,110.768 152.897,110.354 153.342 C 109.939 153.787,109.600 154.387,109.600 154.675 C 109.600 154.964,109.440 155.200,109.245 155.200 C 109.049 155.200,108.771 155.830,108.626 156.600 C 108.482 157.370,108.212 158.000,108.026 158.000 C 107.841 158.000,107.571 158.630,107.426 159.400 C 107.282 160.170,106.994 160.800,106.788 160.800 C 106.581 160.800,106.208 161.610,105.958 162.600 C 105.709 163.590,105.362 164.400,105.188 164.400 C 105.013 164.400,104.749 165.120,104.600 166.000 C 104.451 166.880,104.186 167.600,104.010 167.600 C 103.835 167.600,103.569 168.410,103.421 169.400 C 103.272 170.390,102.963 171.200,102.733 171.200 C 102.503 171.200,102.416 171.464,102.540 171.787 C 102.664 172.110,102.617 172.466,102.435 172.578 C 102.253 172.691,101.979 174.226,101.825 175.991 C 101.671 177.756,101.393 179.200,101.207 179.200 C 101.021 179.200,100.739 180.595,100.582 182.300 C 100.424 184.005,100.102 185.524,99.865 185.674 C 99.336 186.013,98.927 210.400,99.451 210.399 C 99.643 210.399,99.739 211.479,99.664 212.799 C 99.585 214.200,99.693 215.200,99.923 215.200 C 100.139 215.200,100.444 216.639,100.600 218.398 C 100.756 220.157,101.019 221.512,101.185 221.409 C 101.351 221.307,101.607 222.515,101.754 224.094 C 101.901 225.674,102.222 227.090,102.468 227.242 C 102.714 227.394,102.816 227.896,102.695 228.359 C 102.574 228.821,102.623 229.290,102.803 229.402 C 102.983 229.513,103.252 230.323,103.400 231.202 C 103.549 232.081,103.814 232.800,103.991 232.800 C 104.167 232.800,104.429 233.430,104.574 234.200 C 104.718 234.970,105.008 235.600,105.218 235.600 C 105.428 235.600,105.600 236.037,105.600 236.571 C 105.600 237.106,105.887 237.830,106.239 238.182 C 106.590 238.533,106.781 239.073,106.663 239.381 C 106.544 239.689,106.707 240.157,107.024 240.420 C 107.341 240.683,107.600 241.146,107.600 241.449 C 107.600 241.752,107.766 242.000,107.968 242.000 C 108.171 242.000,108.455 242.540,108.600 243.200 C 108.745 243.860,108.993 244.400,109.151 244.400 C 109.377 244.400,110.327 246.476,110.616 247.600 C 110.847 248.500,111.712 250.169,112.202 250.659 C 112.531 250.988,112.800 251.514,112.800 251.829 C 112.800 252.143,112.984 252.400,113.210 252.400 C 113.435 252.400,113.791 252.850,114.000 253.400 C 114.209 253.950,114.545 254.400,114.747 254.400 C 114.948 254.400,115.226 254.850,115.364 255.400 C 115.502 255.950,115.792 256.400,116.008 256.400 C 116.223 256.400,116.400 256.664,116.400 256.986 C 116.400 257.308,116.760 257.765,117.200 258.000 C 117.640 258.235,118.000 258.664,118.000 258.952 C 118.000 259.240,118.360 259.802,118.800 260.200 C 119.240 260.598,119.600 261.088,119.600 261.288 C 119.600 261.488,120.140 262.106,120.800 262.661 C 121.460 263.217,122.000 263.842,122.000 264.052 C 122.000 265.149,134.071 277.795,134.607 277.259 C 134.746 277.120,135.035 277.320,135.250 277.703 C 135.464 278.086,135.895 278.400,136.208 278.400 C 136.520 278.400,137.175 278.940,137.663 279.600 C 138.151 280.260,138.759 280.800,139.013 280.800 C 139.268 280.800,139.802 281.160,140.200 281.600 C 140.598 282.040,141.085 282.400,141.281 282.400 C 141.478 282.400,142.055 282.850,142.565 283.400 C 143.075 283.950,143.702 284.400,143.958 284.400 C 144.215 284.400,144.524 284.659,144.646 284.975 C 144.767 285.291,145.098 285.461,145.381 285.352 C 145.665 285.243,146.004 285.434,146.136 285.777 C 146.267 286.120,146.651 286.400,146.987 286.400 C 147.324 286.400,147.600 286.577,147.600 286.792 C 147.600 287.008,148.050 287.298,148.600 287.436 C 149.150 287.574,149.600 287.830,149.600 288.004 C 149.600 288.179,150.095 288.527,150.700 288.777 C 152.227 289.409,154.160 290.468,154.400 290.804 C 154.510 290.958,155.275 291.209,156.100 291.360 C 156.925 291.512,157.600 291.771,157.600 291.935 C 157.600 292.321,162.121 294.400,162.960 294.400 C 163.312 294.400,163.600 294.572,163.600 294.782 C 163.600 294.992,164.232 295.282,165.004 295.427 C 165.777 295.572,166.498 295.835,166.607 296.011 C 166.715 296.186,167.523 296.452,168.402 296.600 C 169.281 296.749,170.000 297.029,170.000 297.223 C 170.000 297.416,170.288 297.464,170.640 297.329 C 170.993 297.194,171.403 297.281,171.551 297.521 C 171.700 297.762,173.077 298.085,174.611 298.239 C 176.145 298.393,177.500 298.671,177.622 298.858 C 177.745 299.044,179.005 299.314,180.422 299.459 C 181.840 299.604,183.097 299.868,183.215 300.047 C 183.333 300.226,185.178 300.495,187.315 300.645 C 189.452 300.795,191.200 301.027,191.200 301.159 C 191.200 301.292,195.160 301.400,200.000 301.400 C 204.840 301.400,208.800 301.292,208.800 301.160 C 208.800 301.028,210.630 300.800,212.867 300.654 C 215.103 300.507,217.128 300.230,217.367 300.038 C 217.605 299.846,218.925 299.561,220.301 299.405 C 221.676 299.249,222.889 298.980,222.995 298.807 C 223.102 298.635,224.182 298.370,225.395 298.218 C 226.608 298.066,227.600 297.790,227.600 297.604 C 227.600 297.419,228.230 297.316,229.000 297.377 C 229.770 297.439,230.400 297.354,230.400 297.190 C 230.400 297.025,231.210 296.769,232.200 296.621 C 233.190 296.472,234.000 296.190,234.000 295.994 C 234.000 295.797,234.630 295.518,235.400 295.374 C 236.170 295.229,236.800 294.959,236.800 294.774 C 236.800 294.588,237.430 294.318,238.200 294.174 C 238.970 294.029,239.600 293.732,239.600 293.513 C 239.600 293.294,239.870 293.218,240.200 293.345 C 240.530 293.471,240.800 293.415,240.800 293.219 C 240.800 293.024,241.340 292.745,242.000 292.600 C 242.660 292.455,243.200 292.185,243.200 292.000 C 243.200 291.815,243.740 291.545,244.400 291.400 C 245.060 291.255,245.600 290.974,245.600 290.776 C 245.600 290.578,246.050 290.302,246.600 290.164 C 247.150 290.026,247.600 289.734,247.600 289.514 C 247.600 289.294,247.870 289.218,248.200 289.345 C 248.530 289.471,248.800 289.415,248.800 289.219 C 248.800 289.024,249.325 288.748,249.967 288.607 C 250.608 288.466,251.233 288.092,251.354 287.776 C 251.476 287.459,251.773 287.200,252.016 287.200 C 252.259 287.200,252.708 286.975,253.015 286.700 C 254.362 285.491,254.730 285.263,254.957 285.491 C 255.091 285.624,255.200 285.523,255.200 285.267 C 255.200 285.010,255.476 284.800,255.813 284.800 C 256.149 284.800,256.529 284.530,256.655 284.200 C 256.782 283.870,257.142 283.600,257.455 283.600 C 257.769 283.600,258.126 283.337,258.250 283.015 C 258.373 282.694,258.862 282.313,259.337 282.169 C 259.812 282.026,260.685 281.389,261.277 280.754 C 261.870 280.119,262.505 279.600,262.688 279.600 C 262.872 279.600,263.517 279.035,264.123 278.345 C 264.728 277.655,265.327 277.194,265.454 277.321 C 265.580 277.447,266.091 277.112,266.588 276.575 C 267.085 276.039,267.627 275.600,267.792 275.600 C 268.215 275.600,275.600 268.168,275.600 267.742 C 275.600 267.549,276.140 266.945,276.800 266.400 C 277.460 265.855,278.000 265.207,278.000 264.960 C 278.000 264.571,278.594 263.835,281.353 260.800 C 281.653 260.470,282.018 259.812,282.165 259.337 C 282.311 258.862,282.694 258.373,283.015 258.250 C 283.337 258.126,283.600 257.769,283.600 257.455 C 283.600 257.142,283.870 256.782,284.200 256.655 C 284.530 256.529,284.800 256.149,284.800 255.813 C 284.800 255.476,284.958 255.200,285.151 255.200 C 285.345 255.200,285.727 254.660,286.000 254.000 C 286.273 253.340,286.655 252.800,286.849 252.800 C 287.042 252.800,287.200 252.524,287.200 252.187 C 287.200 251.851,287.459 251.476,287.776 251.354 C 288.092 251.233,288.466 250.608,288.607 249.967 C 288.748 249.325,289.024 248.800,289.219 248.800 C 289.415 248.800,289.484 248.563,289.373 248.274 C 289.262 247.985,289.636 247.247,290.204 246.634 C 290.771 246.021,291.340 244.998,291.468 244.360 C 291.596 243.722,291.858 243.200,292.050 243.200 C 292.243 243.200,292.400 242.840,292.400 242.400 C 292.400 241.960,292.220 241.600,292.000 241.600 C 291.273 241.600,291.585 240.859,292.424 240.592 C 293.458 240.264,294.436 238.345,293.695 238.098 C 292.804 237.801,293.159 236.800,294.155 236.800 C 294.931 236.800,295.160 236.536,295.374 235.400 C 295.518 234.630,295.797 234.000,295.994 234.000 C 296.190 234.000,296.472 233.190,296.621 232.200 C 296.769 231.210,297.034 230.400,297.208 230.400 C 297.382 230.400,297.431 230.040,297.316 229.600 C 297.201 229.160,297.293 228.800,297.522 228.800 C 297.750 228.800,298.063 227.585,298.217 226.100 C 298.371 224.615,298.666 223.188,298.873 222.930 C 299.080 222.671,299.283 221.293,299.324 219.867 C 299.366 218.441,299.575 217.303,299.788 217.337 C 300.242 217.410,300.715 214.388,300.765 211.100 C 300.784 209.835,300.935 208.800,301.100 208.800 C 301.265 208.800,301.400 204.840,301.400 200.000 C 301.400 195.160,301.292 191.200,301.159 191.200 C 301.027 191.200,300.795 189.452,300.645 187.315 C 300.495 185.178,300.226 183.333,300.047 183.215 C 299.868 183.097,299.603 181.830,299.457 180.400 C 299.311 178.970,299.014 177.740,298.796 177.667 C 298.578 177.593,298.400 176.978,298.400 176.299 C 298.400 174.401,297.558 170.000,297.194 170.000 C 297.016 170.000,296.749 169.281,296.600 168.402 C 296.452 167.523,296.186 166.715,296.011 166.607 C 295.835 166.498,295.572 165.777,295.427 165.004 C 295.282 164.232,295.012 163.600,294.826 163.600 C 294.641 163.600,294.371 162.970,294.226 162.200 C 294.082 161.430,293.771 160.800,293.535 160.800 C 293.300 160.800,293.201 160.440,293.316 160.000 C 293.431 159.560,293.376 159.200,293.194 159.200 C 293.012 159.200,292.745 158.660,292.600 158.000 C 292.455 157.340,292.185 156.800,292.000 156.800 C 291.815 156.800,291.545 156.258,291.399 155.597 C 291.254 154.935,290.984 154.486,290.800 154.600 C 290.616 154.714,290.346 154.265,290.201 153.603 C 290.055 152.942,289.756 152.400,289.535 152.400 C 289.314 152.400,289.208 152.177,289.299 151.904 C 289.390 151.631,289.270 151.187,289.032 150.917 C 287.947 149.688,287.680 149.282,287.422 148.469 C 287.270 147.991,286.978 147.600,286.773 147.600 C 286.568 147.600,286.400 147.324,286.400 146.987 C 286.400 146.651,286.131 146.272,285.802 146.146 C 285.474 146.019,285.304 145.756,285.425 145.560 C 285.546 145.364,285.216 144.798,284.693 144.302 C 284.169 143.806,283.624 143.085,283.483 142.700 C 283.341 142.315,283.039 142.000,282.813 142.000 C 282.586 142.000,282.400 141.758,282.400 141.462 C 282.400 141.166,282.040 140.598,281.600 140.200 C 281.160 139.802,280.800 139.268,280.800 139.013 C 280.800 138.759,280.260 138.151,279.600 137.663 C 278.940 137.175,278.400 136.520,278.400 136.208 C 278.400 135.895,278.086 135.464,277.703 135.250 C 277.320 135.035,277.120 134.746,277.259 134.607 C 277.795 134.071,265.149 122.000,264.052 122.000 C 263.842 122.000,263.217 121.460,262.661 120.800 C 262.106 120.140,261.488 119.600,261.288 119.600 C 261.088 119.600,260.598 119.240,260.200 118.800 C 259.802 118.360,259.240 118.000,258.952 118.000 C 258.664 118.000,258.235 117.640,258.000 117.200 C 257.765 116.760,257.308 116.400,256.986 116.400 C 256.664 116.400,256.400 116.223,256.400 116.008 C 256.400 115.792,255.950 115.502,255.400 115.364 C 254.850 115.226,254.400 114.948,254.400 114.747 C 254.400 114.545,253.950 114.209,253.400 114.000 C 252.850 113.791,252.400 113.450,252.400 113.242 C 252.400 113.034,251.860 112.745,251.200 112.600 C 250.540 112.455,250.000 112.166,250.000 111.958 C 250.000 111.655,248.603 110.873,247.600 110.616 C 246.413 110.311,244.400 109.370,244.400 109.120 C 244.400 108.944,244.130 108.800,243.800 108.800 C 243.470 108.800,243.200 108.980,243.200 109.200 C 243.200 109.420,243.020 109.600,242.800 109.600 C 242.580 109.600,242.400 109.169,242.400 108.643 C 242.400 107.667,241.742 107.200,240.367 107.200 C 239.945 107.200,239.600 107.001,239.600 106.757 C 239.600 106.514,239.342 106.414,239.026 106.535 C 238.710 106.656,238.350 106.540,238.226 106.278 C 238.054 105.914,237.944 105.920,237.767 106.300 C 237.429 107.024,236.375 106.930,236.655 106.200 C 236.801 105.820,236.650 105.600,236.243 105.600 C 235.889 105.600,235.600 105.428,235.600 105.218 C 235.600 105.008,234.970 104.718,234.200 104.574 C 233.430 104.429,232.800 104.167,232.800 103.991 C 232.800 103.814,232.081 103.549,231.202 103.400 C 230.323 103.252,229.518 102.990,229.412 102.819 C 229.306 102.647,228.765 102.594,228.210 102.700 C 227.646 102.808,227.200 102.707,227.200 102.471 C 227.200 102.239,225.940 101.924,224.400 101.773 C 222.860 101.621,221.600 101.359,221.600 101.190 C 221.600 101.021,220.160 100.756,218.400 100.600 C 216.640 100.444,215.200 100.139,215.200 99.923 C 215.200 99.693,214.200 99.585,212.799 99.664 C 211.479 99.739,210.399 99.665,210.399 99.500 C 210.400 99.209,192.527 99.205,187.900 99.496 M203.600 132.000 C 203.600 132.220,204.421 132.400,205.424 132.400 C 206.537 132.400,207.151 132.556,207.000 132.800 C 206.864 133.020,207.044 133.200,207.400 133.200 C 207.756 133.200,207.929 133.009,207.785 132.776 C 207.604 132.483,208.309 132.439,210.061 132.633 C 211.458 132.788,212.649 133.037,212.710 133.186 C 212.770 133.336,213.400 133.401,214.110 133.330 C 214.819 133.259,215.175 133.306,214.900 133.434 C 214.206 133.757,214.273 134.400,215.000 134.400 C 215.330 134.400,215.600 134.562,215.600 134.761 C 215.600 134.959,216.680 135.247,218.000 135.400 C 219.320 135.553,220.400 135.849,220.400 136.057 C 220.400 136.265,220.625 136.399,220.900 136.354 C 221.175 136.310,221.715 136.392,222.100 136.537 C 222.485 136.682,223.115 136.918,223.500 137.063 C 223.885 137.208,224.429 137.289,224.709 137.243 C 224.989 137.198,225.497 137.440,225.838 137.780 C 226.178 138.121,226.894 138.400,227.429 138.400 C 227.963 138.400,228.404 138.535,228.408 138.700 C 228.413 138.865,229.399 139.450,230.600 140.000 C 231.801 140.550,232.787 141.146,232.792 141.324 C 232.796 141.502,232.980 141.536,233.200 141.400 C 233.420 141.264,233.600 141.331,233.600 141.549 C 233.600 141.768,233.997 142.072,234.481 142.226 C 234.966 142.380,235.609 142.752,235.910 143.053 C 236.211 143.354,236.695 143.600,236.986 143.600 C 237.277 143.600,237.618 143.870,237.745 144.200 C 237.871 144.530,238.251 144.800,238.587 144.800 C 238.924 144.800,239.200 144.989,239.200 145.221 C 239.200 145.452,239.726 145.825,240.368 146.049 C 241.010 146.273,241.635 146.713,241.755 147.028 C 241.876 147.343,242.251 147.600,242.587 147.600 C 242.924 147.600,243.200 147.870,243.200 148.200 C 243.200 148.530,243.376 148.800,243.591 148.800 C 244.039 148.800,252.400 157.086,252.400 157.530 C 252.400 157.691,252.965 158.317,253.655 158.923 C 254.345 159.528,254.806 160.128,254.679 160.255 C 254.552 160.381,254.621 160.691,254.831 160.943 C 256.458 162.883,256.800 163.383,256.800 163.818 C 256.800 164.091,257.070 164.418,257.400 164.545 C 257.730 164.671,258.000 165.051,258.000 165.387 C 258.000 165.724,258.191 166.000,258.424 166.000 C 258.657 166.000,258.724 166.200,258.572 166.445 C 258.421 166.689,258.456 167.004,258.649 167.145 C 258.842 167.285,259.450 168.300,260.000 169.400 C 260.550 170.500,261.121 171.492,261.268 171.604 C 261.416 171.716,261.660 172.301,261.812 172.904 C 261.963 173.507,262.268 174.000,262.490 174.000 C 262.712 174.000,262.799 174.360,262.684 174.800 C 262.569 175.240,262.618 175.600,262.792 175.600 C 262.966 175.600,263.231 176.410,263.379 177.400 C 263.528 178.390,263.818 179.200,264.025 179.200 C 264.231 179.200,264.400 179.723,264.400 180.363 C 264.400 181.243,264.570 181.500,265.100 181.420 C 265.485 181.362,265.565 181.394,265.277 181.491 C 264.449 181.770,264.915 182.987,265.904 183.128 C 266.827 183.260,267.297 185.600,266.400 185.600 C 266.180 185.600,266.000 185.780,266.000 186.000 C 266.000 186.220,266.270 186.400,266.600 186.400 C 266.930 186.400,267.200 186.670,267.200 187.000 C 267.200 187.330,267.020 187.600,266.800 187.600 C 266.580 187.600,266.400 187.870,266.400 188.200 C 266.400 188.530,266.670 188.800,267.000 188.800 C 267.444 188.800,267.600 189.267,267.600 190.600 C 267.600 191.590,267.780 192.400,268.000 192.400 C 268.253 192.400,268.400 195.333,268.400 200.400 C 268.400 204.800,268.243 208.400,268.052 208.400 C 267.860 208.400,267.579 209.660,267.427 211.200 C 267.226 213.242,266.996 214.000,266.576 214.000 C 266.259 214.000,266.000 214.270,266.000 214.600 C 266.000 214.930,266.180 215.200,266.400 215.200 C 267.252 215.200,266.792 216.745,265.902 216.872 C 265.177 216.975,264.939 217.364,264.659 218.900 C 264.469 219.945,264.140 220.800,263.928 220.800 C 263.716 220.800,263.574 221.205,263.612 221.700 C 263.695 222.794,263.218 224.400,262.809 224.400 C 262.645 224.400,262.597 224.850,262.702 225.400 C 262.814 225.984,262.707 226.400,262.447 226.400 C 262.201 226.400,262.000 226.605,262.000 226.856 C 262.000 227.388,260.328 230.903,259.932 231.204 C 259.784 231.316,259.540 231.901,259.388 232.504 C 259.237 233.107,258.942 233.600,258.733 233.600 C 258.524 233.600,258.464 233.780,258.600 234.000 C 258.736 234.220,258.660 234.400,258.431 234.400 C 258.202 234.400,257.906 234.837,257.772 235.371 C 257.637 235.905,257.274 236.439,256.964 236.559 C 256.654 236.678,256.400 237.051,256.400 237.387 C 256.400 237.724,256.216 238.000,255.990 238.000 C 255.765 238.000,255.397 238.405,255.173 238.900 C 254.386 240.640,253.783 241.446,251.950 243.215 C 250.932 244.197,249.974 245.408,249.821 245.906 C 249.668 246.404,249.375 246.708,249.171 246.582 C 248.967 246.456,248.800 246.549,248.800 246.789 C 248.800 247.029,248.485 247.345,248.100 247.492 C 247.715 247.639,246.050 249.118,244.400 250.779 C 241.443 253.756,240.676 254.369,238.900 255.173 C 238.405 255.397,238.000 255.765,238.000 255.990 C 238.000 256.216,237.724 256.400,237.387 256.400 C 237.051 256.400,236.678 256.654,236.559 256.964 C 236.439 257.274,235.905 257.637,235.371 257.772 C 234.837 257.906,234.400 258.202,234.400 258.431 C 234.400 258.660,234.220 258.736,234.000 258.600 C 233.780 258.464,233.600 258.529,233.600 258.745 C 233.600 258.960,233.060 259.255,232.400 259.400 C 231.740 259.545,231.200 259.796,231.200 259.957 C 231.200 260.268,227.467 262.000,226.796 262.000 C 226.578 262.000,226.400 262.201,226.400 262.447 C 226.400 262.707,225.984 262.814,225.400 262.702 C 224.850 262.597,224.400 262.645,224.400 262.809 C 224.400 263.218,222.794 263.695,221.700 263.612 C 221.205 263.574,220.800 263.716,220.800 263.928 C 220.800 264.140,219.945 264.469,218.900 264.659 C 217.364 264.939,216.975 265.177,216.872 265.902 C 216.745 266.792,215.200 267.252,215.200 266.400 C 215.200 266.180,214.930 266.000,214.600 266.000 C 214.270 266.000,214.000 266.270,214.000 266.600 C 214.000 266.954,213.631 267.202,213.100 267.205 C 212.605 267.208,211.767 267.327,211.237 267.468 C 210.563 267.649,210.360 267.588,210.561 267.263 C 210.733 266.985,210.588 266.800,210.200 266.800 C 209.844 266.800,209.664 266.980,209.800 267.200 C 209.944 267.433,209.537 267.600,208.824 267.600 C 208.151 267.600,207.600 267.780,207.600 268.000 C 207.600 268.976,192.468 268.487,192.328 267.506 C 192.215 266.718,192.000 266.628,190.500 266.737 C 189.476 266.812,188.800 266.690,188.800 266.431 C 188.800 265.888,186.133 265.860,185.800 266.400 C 185.664 266.620,185.068 266.786,184.476 266.768 C 183.884 266.751,183.625 266.646,183.900 266.535 C 185.065 266.065,184.285 265.609,182.737 265.856 C 181.177 266.106,181.089 266.069,181.300 265.261 C 181.492 264.525,181.356 264.400,180.363 264.400 C 179.723 264.400,179.200 264.231,179.200 264.025 C 179.200 263.818,178.390 263.528,177.400 263.379 C 176.410 263.231,175.600 262.966,175.600 262.792 C 175.600 262.618,175.240 262.569,174.800 262.684 C 174.360 262.799,174.000 262.707,174.000 262.478 C 174.000 262.250,173.460 261.945,172.800 261.800 C 172.140 261.655,171.600 261.379,171.600 261.186 C 171.600 260.994,170.982 260.720,170.228 260.579 C 169.473 260.437,168.759 260.069,168.640 259.761 C 168.522 259.452,168.149 259.200,167.813 259.200 C 167.476 259.200,167.200 259.026,167.200 258.813 C 167.200 258.599,166.930 258.529,166.600 258.655 C 166.270 258.782,166.000 258.686,166.000 258.443 C 166.000 258.199,165.724 258.000,165.387 258.000 C 165.051 258.000,164.671 257.730,164.545 257.400 C 164.418 257.070,164.091 256.800,163.818 256.800 C 163.383 256.800,162.883 256.458,160.943 254.831 C 160.691 254.621,160.381 254.552,160.255 254.679 C 160.128 254.806,159.528 254.345,158.923 253.655 C 158.317 252.965,157.592 252.400,157.311 252.400 C 157.030 252.400,156.800 252.130,156.800 251.800 C 156.800 251.470,156.621 251.200,156.403 251.200 C 155.622 251.200,146.450 241.429,145.942 240.056 C 145.768 239.585,145.440 239.200,145.213 239.200 C 144.986 239.200,144.800 238.924,144.800 238.587 C 144.800 238.251,144.530 237.871,144.200 237.745 C 143.870 237.618,143.600 237.277,143.600 236.986 C 143.600 236.695,143.367 236.219,143.083 235.929 C 142.799 235.638,142.327 234.815,142.035 234.100 C 141.742 233.385,141.390 232.796,141.251 232.792 C 141.113 232.787,140.550 231.801,140.000 230.600 C 139.450 229.399,138.865 228.413,138.700 228.408 C 138.535 228.404,138.400 227.963,138.400 227.429 C 138.400 226.894,138.121 226.178,137.780 225.838 C 137.440 225.497,137.198 224.989,137.243 224.709 C 137.289 224.429,137.208 223.885,137.063 223.500 C 136.918 223.115,136.682 222.485,136.537 222.100 C 136.392 221.715,136.310 221.175,136.354 220.900 C 136.399 220.625,136.265 220.400,136.057 220.400 C 135.849 220.400,135.553 219.320,135.400 218.000 C 135.146 215.810,135.037 215.600,134.161 215.600 C 133.403 215.600,133.200 215.389,133.200 214.600 C 133.200 214.050,133.380 213.600,133.600 213.600 C 133.820 213.600,134.000 213.330,134.000 213.000 C 134.000 212.670,133.730 212.400,133.400 212.400 C 133.046 212.400,132.798 212.031,132.796 211.500 C 132.793 211.005,132.675 209.897,132.533 209.038 C 132.346 207.906,132.403 207.554,132.738 207.761 C 133.015 207.933,133.200 207.788,133.200 207.400 C 133.200 207.044,133.020 206.864,132.800 207.000 C 132.556 207.151,132.400 206.537,132.400 205.424 C 132.400 204.421,132.220 203.600,132.000 203.600 C 131.763 203.600,131.600 202.133,131.600 200.000 C 131.600 197.867,131.763 196.400,132.000 196.400 C 132.220 196.400,132.400 195.759,132.400 194.976 C 132.400 194.129,132.562 193.653,132.800 193.800 C 133.020 193.936,133.200 193.666,133.200 193.200 C 133.200 192.734,133.020 192.464,132.800 192.600 C 132.580 192.736,132.400 192.477,132.400 192.024 C 132.400 191.486,132.660 191.200,133.148 191.200 C 133.794 191.200,133.935 190.760,134.176 188.000 C 134.329 186.240,134.602 184.800,134.781 184.800 C 134.961 184.800,135.232 183.810,135.383 182.600 C 135.534 181.390,135.804 180.400,135.983 180.400 C 136.163 180.400,136.431 179.590,136.579 178.600 C 136.728 177.610,137.001 176.800,137.187 176.800 C 137.373 176.800,137.431 176.440,137.316 176.000 C 137.201 175.560,137.288 175.200,137.509 175.200 C 137.730 175.200,138.029 174.570,138.174 173.800 C 138.318 173.030,138.594 172.400,138.786 172.400 C 138.979 172.400,139.255 171.860,139.400 171.200 C 139.545 170.540,139.815 170.000,140.000 170.000 C 140.185 170.000,140.455 169.460,140.600 168.800 C 140.745 168.140,141.024 167.600,141.219 167.600 C 141.415 167.600,141.480 167.353,141.364 167.052 C 141.249 166.750,141.434 166.396,141.777 166.264 C 142.120 166.133,142.400 165.749,142.400 165.413 C 142.400 165.076,142.580 164.800,142.800 164.800 C 143.020 164.800,143.200 164.524,143.200 164.187 C 143.200 163.851,143.470 163.471,143.800 163.345 C 144.130 163.218,144.400 162.886,144.400 162.606 C 144.400 162.327,144.674 161.870,145.010 161.592 C 145.345 161.314,145.540 161.006,145.442 160.909 C 144.976 160.443,155.611 149.322,159.000 146.732 C 159.660 146.227,160.260 145.675,160.334 145.505 C 160.408 145.334,160.613 145.284,160.789 145.393 C 160.965 145.502,161.332 145.323,161.604 144.996 C 161.876 144.668,162.327 144.400,162.606 144.400 C 162.886 144.400,163.218 144.130,163.345 143.800 C 163.471 143.470,163.773 143.200,164.016 143.200 C 164.259 143.200,164.708 142.975,165.015 142.700 C 166.471 141.394,166.838 141.177,167.205 141.403 C 167.422 141.537,167.600 141.471,167.600 141.255 C 167.600 141.040,168.125 140.748,168.767 140.607 C 169.408 140.466,170.033 140.092,170.154 139.776 C 170.276 139.459,170.831 139.200,171.387 139.200 C 171.944 139.200,172.400 139.028,172.400 138.818 C 172.400 138.608,173.032 138.318,173.804 138.173 C 174.577 138.028,175.303 137.758,175.417 137.572 C 175.532 137.387,175.890 137.336,176.213 137.460 C 176.536 137.584,176.800 137.497,176.800 137.267 C 176.800 137.037,177.610 136.728,178.600 136.579 C 179.590 136.431,180.400 136.150,180.400 135.955 C 180.400 135.760,180.805 135.597,181.300 135.594 C 182.373 135.587,182.998 135.215,183.308 134.400 C 183.490 133.922,183.543 133.942,183.568 134.500 C 183.600 135.204,184.800 135.523,184.800 134.827 C 184.800 134.623,186.243 134.329,188.006 134.175 C 190.645 133.945,191.192 133.781,191.106 133.248 C 191.038 132.831,191.337 132.552,191.944 132.466 C 192.546 132.381,192.791 132.490,192.621 132.766 C 192.472 133.007,192.630 133.200,192.976 133.200 C 193.319 133.200,193.600 133.020,193.600 132.800 C 193.600 132.580,194.320 132.400,195.200 132.400 C 196.080 132.400,196.800 132.220,196.800 132.000 C 196.800 131.765,198.200 131.600,200.200 131.600 C 202.200 131.600,203.600 131.765,203.600 132.000 M267.709 195.200 C 267.709 196.190,267.787 196.595,267.882 196.100 C 267.978 195.605,267.978 194.795,267.882 194.300 C 267.787 193.805,267.709 194.210,267.709 195.200 M267.693 205.200 C 267.693 205.970,267.775 206.285,267.876 205.900 C 267.976 205.515,267.976 204.885,267.876 204.500 C 267.775 204.115,267.693 204.430,267.693 205.200 M194.300 267.882 C 194.795 267.978,195.605 267.978,196.100 267.882 C 196.595 267.787,196.190 267.709,195.200 267.709 C 194.210 267.709,193.805 267.787,194.300 267.882 M204.500 267.876 C 204.885 267.976,205.515 267.976,205.900 267.876 C 206.285 267.775,205.970 267.693,205.200 267.693 C 204.430 267.693,204.115 267.775,204.500 267.876 " stroke="none" fill="#d4cccc" fill-rule="evenodd"></path><path id="path1" d="M90.705 37.483 C 91.202 37.579,91.922 37.575,92.305 37.475 C 92.687 37.375,92.280 37.296,91.400 37.301 C 90.520 37.305,90.207 37.387,90.705 37.483 M362.493 90.000 C 362.493 90.770,362.575 91.085,362.676 90.700 C 362.776 90.315,362.776 89.685,362.676 89.300 C 362.575 88.915,362.493 89.230,362.493 90.000 M266.493 184.400 C 266.493 185.170,266.575 185.485,266.676 185.100 C 266.776 184.715,266.776 184.085,266.676 183.700 C 266.575 183.315,266.493 183.630,266.493 184.400 M301.370 200.000 C 301.370 204.730,301.428 206.665,301.498 204.300 C 301.569 201.935,301.569 198.065,301.498 195.700 C 301.428 193.335,301.370 195.270,301.370 200.000 M189.505 266.683 C 190.002 266.779,190.722 266.775,191.105 266.675 C 191.487 266.575,191.080 266.496,190.200 266.501 C 189.320 266.505,189.007 266.587,189.505 266.683 M195.700 301.498 C 198.065 301.569,201.935 301.569,204.300 301.498 C 206.665 301.428,204.730 301.370,200.000 301.370 C 195.270 301.370,193.335 301.428,195.700 301.498 M89.300 362.676 C 89.685 362.776,90.315 362.776,90.700 362.676 C 91.085 362.575,90.770 362.493,90.000 362.493 C 89.230 362.493,88.915 362.575,89.300 362.676 " stroke="none" fill="#d8cccc" fill-rule="evenodd"></path><path id="path2" d="M90.705 37.483 C 91.202 37.579,91.922 37.575,92.305 37.475 C 92.687 37.375,92.280 37.296,91.400 37.301 C 90.520 37.305,90.207 37.387,90.705 37.483 M362.493 90.000 C 362.493 90.770,362.575 91.085,362.676 90.700 C 362.776 90.315,362.776 89.685,362.676 89.300 C 362.575 88.915,362.493 89.230,362.493 90.000 M266.493 184.400 C 266.493 185.170,266.575 185.485,266.676 185.100 C 266.776 184.715,266.776 184.085,266.676 183.700 C 266.575 183.315,266.493 183.630,266.493 184.400 M301.370 200.000 C 301.370 204.730,301.428 206.665,301.498 204.300 C 301.569 201.935,301.569 198.065,301.498 195.700 C 301.428 193.335,301.370 195.270,301.370 200.000 M189.505 266.683 C 190.002 266.779,190.722 266.775,191.105 266.675 C 191.487 266.575,191.080 266.496,190.200 266.501 C 189.320 266.505,189.007 266.587,189.505 266.683 M195.700 301.498 C 198.065 301.569,201.935 301.569,204.300 301.498 C 206.665 301.428,204.730 301.370,200.000 301.370 C 195.270 301.370,193.335 301.428,195.700 301.498 M89.300 362.676 C 89.685 362.776,90.315 362.776,90.700 362.676 C 91.085 362.575,90.770 362.493,90.000 362.493 C 89.230 362.493,88.915 362.575,89.300 362.676 " stroke="none" fill="#d8cccc" fill-rule="evenodd"></path><path id="path3" d="M90.705 37.483 C 91.202 37.579,91.922 37.575,92.305 37.475 C 92.687 37.375,92.280 37.296,91.400 37.301 C 90.520 37.305,90.207 37.387,90.705 37.483 M362.493 90.000 C 362.493 90.770,362.575 91.085,362.676 90.700 C 362.776 90.315,362.776 89.685,362.676 89.300 C 362.575 88.915,362.493 89.230,362.493 90.000 M266.493 184.400 C 266.493 185.170,266.575 185.485,266.676 185.100 C 266.776 184.715,266.776 184.085,266.676 183.700 C 266.575 183.315,266.493 183.630,266.493 184.400 M301.370 200.000 C 301.370 204.730,301.428 206.665,301.498 204.300 C 301.569 201.935,301.569 198.065,301.498 195.700 C 301.428 193.335,301.370 195.270,301.370 200.000 M189.505 266.683 C 190.002 266.779,190.722 266.775,191.105 266.675 C 191.487 266.575,191.080 266.496,190.200 266.501 C 189.320 266.505,189.007 266.587,189.505 266.683 M195.700 301.498 C 198.065 301.569,201.935 301.569,204.300 301.498 C 206.665 301.428,204.730 301.370,200.000 301.370 C 195.270 301.370,193.335 301.428,195.700 301.498 M89.300 362.676 C 89.685 362.776,90.315 362.776,90.700 362.676 C 91.085 362.575,90.770 362.493,90.000 362.493 C 89.230 362.493,88.915 362.575,89.300 362.676 " stroke="none" fill="#d8cccc" fill-rule="evenodd"></path><path id="path4" d="M90.705 37.483 C 91.202 37.579,91.922 37.575,92.305 37.475 C 92.687 37.375,92.280 37.296,91.400 37.301 C 90.520 37.305,90.207 37.387,90.705 37.483 M362.493 90.000 C 362.493 90.770,362.575 91.085,362.676 90.700 C 362.776 90.315,362.776 89.685,362.676 89.300 C 362.575 88.915,362.493 89.230,362.493 90.000 M266.493 184.400 C 266.493 185.170,266.575 185.485,266.676 185.100 C 266.776 184.715,266.776 184.085,266.676 183.700 C 266.575 183.315,266.493 183.630,266.493 184.400 M301.370 200.000 C 301.370 204.730,301.428 206.665,301.498 204.300 C 301.569 201.935,301.569 198.065,301.498 195.700 C 301.428 193.335,301.370 195.270,301.370 200.000 M189.505 266.683 C 190.002 266.779,190.722 266.775,191.105 266.675 C 191.487 266.575,191.080 266.496,190.200 266.501 C 189.320 266.505,189.007 266.587,189.505 266.683 M195.700 301.498 C 198.065 301.569,201.935 301.569,204.300 301.498 C 206.665 301.428,204.730 301.370,200.000 301.370 C 195.270 301.370,193.335 301.428,195.700 301.498 M89.300 362.676 C 89.685 362.776,90.315 362.776,90.700 362.676 C 91.085 362.575,90.770 362.493,90.000 362.493 C 89.230 362.493,88.915 362.575,89.300 362.676 " stroke="none" fill="#d8cccc" fill-rule="evenodd"></path></g></svg>