<svg id="svg" version="1.1" xmlns="http://www.w3.org/2000/svg" xmlns:xlink="http://www.w3.org/1999/xlink" width="400" height="400" viewBox="0, 0, 400,400"><g id="svgg"><path id="path0" d="M394.408 176.159 C 366.848 191.162,333.155 199.818,302.632 199.736 C 256.274 199.612,215.299 213.014,179.441 240.027 C 131.173 276.390,101.192 334.353,100.270 393.092 L 100.164 399.836 151.727 399.919 L 203.289 400.002 203.290 396.794 C 203.296 347.447,245.644 303.661,296.464 300.455 L 300.000 300.232 300.000 349.965 L 300.000 399.698 329.359 399.585 C 362.106 399.460,360.306 399.579,367.899 397.049 C 385.412 391.215,397.892 375.247,399.660 356.414 C 400.057 352.185,400.148 173.347,399.753 173.369 C 399.618 173.377,397.212 174.632,394.408 176.159 " stroke="none" fill="#fac421" fill-rule="evenodd"></path><path id="path1" d="M103.618 55.609 C 103.618 93.196,103.727 111.156,103.953 111.016 C 104.137 110.903,104.211 110.688,104.119 110.538 C 104.027 110.389,104.172 110.181,104.443 110.078 C 104.713 109.974,104.934 109.756,104.934 109.593 C 104.934 109.298,109.469 104.544,109.623 104.679 C 109.667 104.718,110.400 104.271,111.251 103.686 C 113.221 102.330,114.999 101.578,118.092 100.792 C 121.845 99.838,278.484 99.807,281.908 100.759 C 289.049 102.746,295.153 108.044,297.961 114.693 C 299.711 118.836,299.661 117.502,299.666 160.115 L 299.671 199.671 303.207 199.666 C 333.667 199.622,367.522 190.671,395.970 175.140 L 400.000 172.940 399.998 108.263 C 399.996 38.020,400.061 40.673,398.194 34.167 C 393.412 17.503,380.437 5.290,362.829 0.881 L 360.033 0.181 231.826 0.088 L 103.618 -0.006 103.618 55.609 M92.860 399.916 C 94.271 399.978,96.491 399.977,97.795 399.915 C 99.098 399.853,97.944 399.802,95.230 399.803 C 92.516 399.803,91.450 399.854,92.860 399.916 " stroke="none" fill="#1664c7" fill-rule="evenodd"></path><path id="path2" d="M39.309 0.520 C 19.918 3.916,4.439 19.292,0.754 38.816 C -0.164 43.681,-0.164 355.990,0.754 360.855 C 4.476 380.576,19.686 395.589,39.638 399.234 C 43.191 399.884,99.264 400.188,99.890 399.561 C 100.041 399.411,100.203 336.796,100.249 260.417 C 100.296 184.038,100.427 120.954,100.541 120.230 C 100.654 119.507,100.771 118.690,100.800 118.415 C 100.830 118.141,100.966 117.734,101.104 117.511 C 101.242 117.288,101.263 116.957,101.151 116.776 C 101.040 116.595,101.090 116.447,101.264 116.447 C 101.437 116.447,101.757 115.707,101.974 114.803 C 102.191 113.898,102.502 113.158,102.664 113.158 C 102.827 113.158,102.961 112.954,102.961 112.705 C 102.961 112.456,103.146 112.098,103.372 111.910 C 103.698 111.639,103.766 100.093,103.699 55.785 L 103.615 0.000 72.778 0.030 C 47.909 0.053,41.432 0.148,39.309 0.520 " stroke="none" fill="#1c74d2" fill-rule="evenodd"></path><path id="path3" d="M302.542 199.908 C 303.126 199.981,304.162 199.982,304.845 199.911 C 305.527 199.840,305.049 199.780,303.783 199.779 C 302.516 199.778,301.958 199.836,302.542 199.908 M299.752 350.082 L 299.671 400.000 326.727 399.920 L 353.783 399.839 326.893 399.753 L 300.002 399.667 299.918 349.916 L 299.833 300.164 299.752 350.082 M399.761 355.592 C 399.761 356.406,399.825 356.739,399.903 356.332 C 399.982 355.925,399.982 355.259,399.903 354.852 C 399.825 354.445,399.761 354.778,399.761 355.592 M397.885 365.648 C 397.764 366.131,397.729 366.588,397.806 366.666 C 397.884 366.744,398.046 366.413,398.167 365.930 C 398.288 365.448,398.324 364.991,398.246 364.913 C 398.169 364.835,398.006 365.166,397.885 365.648 M394.805 373.530 C 394.228 374.700,393.827 375.658,393.913 375.658 C 394.133 375.658,396.122 371.670,395.975 371.523 C 395.909 371.457,395.382 372.360,394.805 373.530 M391.600 379.030 C 391.093 379.799,390.888 380.254,391.145 380.042 C 391.639 379.634,392.898 377.632,392.661 377.632 C 392.584 377.632,392.107 378.261,391.600 379.030 M389.123 382.319 C 388.331 383.269,387.943 383.838,388.262 383.584 C 388.901 383.074,390.927 380.592,390.704 380.592 C 390.627 380.592,389.915 381.369,389.123 382.319 M384.868 386.908 C 382.977 388.712,382.711 389.036,384.046 387.910 C 385.947 386.308,388.106 384.194,387.808 384.226 C 387.729 384.235,386.406 385.442,384.868 386.908 M379.441 391.312 L 378.454 392.160 379.523 391.452 C 380.111 391.063,380.592 390.681,380.592 390.603 C 380.592 390.356,380.453 390.442,379.441 391.312 M100.099 394.079 C 100.099 395.074,100.160 395.481,100.236 394.984 C 100.311 394.486,100.311 393.672,100.236 393.174 C 100.160 392.677,100.099 393.084,100.099 394.079 M367.434 397.204 C 366.801 397.448,366.505 397.652,366.776 397.658 C 367.048 397.663,367.714 397.464,368.257 397.216 C 369.527 396.634,368.936 396.626,367.434 397.204 " stroke="none" fill="#98a06c" fill-rule="evenodd"></path><path id="path4" d="M314.556 199.240 C 314.873 199.323,315.391 199.323,315.707 199.240 C 316.024 199.157,315.765 199.089,315.132 199.089 C 314.498 199.089,314.239 199.157,314.556 199.240 M309.297 199.578 C 309.797 199.654,310.537 199.652,310.942 199.574 C 311.347 199.496,310.938 199.434,310.033 199.436 C 309.128 199.439,308.797 199.503,309.297 199.578 M100.076 391.447 C 100.076 392.081,100.144 392.340,100.227 392.023 C 100.309 391.706,100.309 391.188,100.227 390.872 C 100.144 390.555,100.076 390.814,100.076 391.447 " stroke="none" fill="#7c8c7c" fill-rule="evenodd"></path></g></svg>